<svg xmlns="http://www.w3.org/2000/svg" width="806.673" height="263.673" viewBox="0 0 806.673 263.673">
  <g id="about_us_page_main_illustration" data-name="about us page main illustration" transform="translate(-39.106 -335.904)">
    <path id="Path_468" data-name="Path 468" d="M569.438,599.981c-11.046-7.19-16.539-23.9-13.833-39.182s12.9-28.444,25.117-34.121a39.356,39.356,0,0,1,37.256,2.648c11.2,6.851,27.051,10.6,32.372,24.312,4.089,10.534-1.1,31.925-6.6,42.156-4.756,8.843-13.8,12.889-22.287,14.646a66.958,66.958,0,0,1-54.153-12.495Z" transform="translate(-179.044 -121.757)" fill="#333"/>
    <path id="Path_469" data-name="Path 469" d="M285.258,489.923l-8.831,15.226-1.167,2.008-1.7,2.954H247.526l1.757-2.954,4.549-7.665,10.6-17.9,12.006,4.8Z" transform="translate(99.375 69.465)" fill="#ffb8b8"/>
    <path id="Path_470" data-name="Path 470" d="M535.707,665.881l-4.755-2.954-.591-.369,29.846-54.391a20.278,20.278,0,0,1,12.184-9.776,20.045,20.045,0,0,1,10.013-.369,19.711,19.711,0,0,1,5.523,2.068,19.315,19.315,0,0,1,2.053,1.3,19.713,19.713,0,0,1,6.055,6.823,20.4,20.4,0,0,1-.62,20.6L583.91,647.2l-9.836,15.728-1.846,2.954H535.707Z" transform="translate(-190.755 -86.305)" fill="#333"/>
    <circle id="Ellipse_72" data-name="Ellipse 72" cx="36.272" cy="36.272" r="36.272" transform="translate(385.362 424.983)" fill="#ffb8b8"/>
    <path id="Path_471" data-name="Path 471" d="M637.434,667.308H555.9l.369-1.049q-.31-.953-.576-1.905c-.192-.665-.355-1.344-.5-2.008a44.59,44.59,0,0,1,.014-18.755c4.5-22.123,22.477-40.1,22.477-40.1.31-.236.62-.458.93-.679a41.036,41.036,0,0,1,8.639-4.844c13.35-5.538,27.35-3.308,36.757-.443a73.364,73.364,0,0,1,9.585,3.648c1.092.517,1.684.842,1.684.842l.93,28.369,1.122,33.966Z" transform="translate(-179.389 -87.732)" fill="#0eafe1"/>
    <path id="Path_472" data-name="Path 472" d="M652.613,665.524l-6.232-31.692-6.291-31.958A6.674,6.674,0,0,0,634.7,596.6l-13.173-2.274-12.257-2.112a6.585,6.585,0,0,0-6.365,2.437,6.513,6.513,0,0,0-1.433,4.047,6.675,6.675,0,0,0,.547,2.643c6.395,14.916,6.513,38.53,4.888,64.182-.074.975-.133,1.964-.207,2.954h46.5Z" transform="translate(-156.85 -88.902)" fill="#333"/>
    <path id="Path_473" data-name="Path 473" d="M595.548,598.5a6.685,6.685,0,0,0-10.559-3.662l-5.656,5.139-23.157,21.089a6.417,6.417,0,0,0-1.654,2.348c-2.614,6.247-7.708,18.578-13.631,33.8q-1.44,3.721-2.968,7.665c-.355.975-.738,1.964-1.123,2.954h38.161c.31-.99.62-1.979.93-2.954,1.7-5.361,3.352-10.618,4.947-15.728,4.666-14.842,8.875-28.325,12.125-38.988q1.351-4.43,2.466-8.181a6.686,6.686,0,0,0,.118-3.485Z" transform="translate(-187.685 -88.262)" fill="#333"/>
    <path id="Path_474" data-name="Path 474" d="M364.415,512.5h2.466l-.34-.827-.9-2.127-13.9-32.977-2.127,1.285-17.072,10.323,8.757,21.369,1.211,2.954h21.9Z" transform="translate(139.913 67.072)" fill="#ffb8b8"/>
    <path id="Path_475" data-name="Path 475" d="M645.11,606.022a20.411,20.411,0,0,0-25.564-12.065,18.317,18.317,0,0,0-1.875.738,20.153,20.153,0,0,0-8.595,7.281,19.489,19.489,0,0,0-2.112,4.091,20.294,20.294,0,0,0,.458,15.61l4.268,9.511,15.27,33.966,1.329,2.954H659.2l2.126-.827,5.524-2.127.768-.3Z" transform="translate(-154.871 -88.53)" fill="#333"/>
    <path id="Path_476" data-name="Path 476" d="M610.891,542.258a6,6,0,0,0,6.826-2.59,8.64,8.64,0,0,0,.5-7.6,15.854,15.854,0,0,0-4.719-6.224,18.322,18.322,0,0,0-8.3-4.3,11.018,11.018,0,0,0-8.939,1.965,7.94,7.94,0,0,0-2.7,8.451c.939,2.724,3.483,4.549,6.023,5.908a40.014,40.014,0,0,0,16.3,4.634Z" transform="translate(-160.77 -122.661)" fill="#333"/>
    <path id="Path_477" data-name="Path 477" d="M631.649,576.378c-5.831.8-5.083-2.164-7.418-7.568s-5.462-11.818-11.323-12.365c-4.8-.448-8.761,3.391-12.652,6.243-6.935,5.082-16.282,7.57-24.322,4.521s-13.626-12.63-10.576-20.669a17.637,17.637,0,0,1,10.2-9.642,35.485,35.485,0,0,1,14.211-1.974,73.318,73.318,0,0,1,30.812,7.887c6.6,3.356,13.034,8.157,15.54,15.128s4.154,16.769-3.01,18.655Z" transform="translate(-174.472 -116.206)" fill="#333"/>
    <path id="Path_478" data-name="Path 478" d="M604.1,528.427c-2.883-5.017-.5-11.9,4.213-15.254s11.043-3.681,16.671-2.337a32.735,32.735,0,0,1,23.482,22.76c2.388,8.774.968,18.2,2.991,27.063a35.515,35.515,0,0,0,44.633,26.177c6.058-1.779,12.214-6.1,12.81-12.389a34.732,34.732,0,0,1-20.569,34.778c-7.8,3.256-16.511,3.468-24.965,3.251-5.509-.141-11.144-.473-16.227-2.6a29.043,29.043,0,0,1-15.26-16.546,45.971,45.971,0,0,1-2.031-22.795c.832-5.949,2.486-11.78,2.949-17.769s-.415-12.384-4.107-17.122-10.745-7.158-15.994-4.238c-2.11,1.174-3.812,3.091-6.1,3.848s-5.541-.574-5.332-2.979Z" transform="translate(-156.958 -128.006)" fill="#333"/>
    <path id="Path_487" data-name="Path 487" d="M744.195,478.822H534.459a16.989,16.989,0,0,0-16.969,16.968V705.526a16.989,16.989,0,0,0,16.969,16.968H744.195a16.979,16.979,0,0,0,16.968-16.968V495.79a16.979,16.979,0,0,0-16.968-16.969Zm14.014,226.7a14.026,14.026,0,0,1-14.014,14.015H534.459a14.036,14.036,0,0,1-14.015-14.015V495.79a14.036,14.036,0,0,1,14.015-14.015H744.195a14.026,14.026,0,0,1,14.014,14.015ZM573.2,719.541q.266.953.576,1.905l-.369,1.049H646.74c.074-.989.133-1.979.207-2.954Z" transform="translate(-196.892 -142.918)" fill="#d6d6d6"/>
    <g id="Group_129" data-name="Group 129" transform="translate(0 20)">
      <path id="Path_479" data-name="Path 479" d="M770.781,676.205l.281-2.954,8.329-86.659a53.04,53.04,0,0,1,8.758-5.568c17.146-8.639,33.686-4.5,42.635-.93a46.647,46.647,0,0,1,6.853,3.352l4.874,89.8.162,2.954Z" transform="translate(-76.123 -96.629)" fill="#0eafe1"/>
      <circle id="Ellipse_73" data-name="Ellipse 73" cx="36.272" cy="36.272" r="36.272" transform="translate(697.394 394.356)" fill="#ffb8b8"/>
      <path id="Path_480" data-name="Path 480" d="M841.576,583.814a19.744,19.744,0,0,0-14.983-33.323c-5.016.168-9.742,2.22-14.529,3.727a48.047,48.047,0,0,1-22.573,2.033,30.141,30.141,0,0,1-19.223-11.35c-4.488-6.168-5.887-14.723-2.717-21.661,3.66-8.009,12.21-12.423,20.252-16.008a37.012,37.012,0,0,1,10.282-3.378,13.186,13.186,0,0,1,10.229,2.579c2.26,1.944,3.585,4.866,6.044,6.55,2.769,1.9,6.365,1.847,9.7,2.181a37.222,37.222,0,0,1,18.028,67.254Z" transform="translate(-78.481 -131.068)" fill="#333"/>
      <path id="Path_481" data-name="Path 481" d="M810.074,595.341l-5.4-15-.338-.935a3.107,3.107,0,0,0-4.647-1.531l-6.136,4.091s-39.357,0-42.517,23.614c-.044.369-.1.783-.147,1.226a.23.23,0,0,1-.015.059c-.4,1.551-7.827,30.26-14.207,65.7-.177.975-.354,1.964-.531,2.954h85.522C824.436,639.912,822.878,606.808,810.074,595.341Z" transform="translate(-92.644 -95.94)" fill="#333"/>
      <path id="Path_482" data-name="Path 482" d="M882.169,672.562C877.5,636.2,870.827,606.8,870.827,606.8c-.059-.443-.118-.857-.163-1.226-3.145-23.614-42.5-23.614-42.5-23.614l-6.133-4.089a3.108,3.108,0,0,0-4.648,1.534l-5.744,15.935c-12.8,11.467-14.361,44.571-11.579,80.175h82.479C882.42,674.526,882.287,673.537,882.169,672.562Z" transform="translate(-62.721 -95.939)" fill="#333"/>
      <path id="Path_488" data-name="Path 488" d="M934.815,478.822H725.079a16.979,16.979,0,0,0-16.969,16.968V705.526a16.979,16.979,0,0,0,16.969,16.968H934.815a16.989,16.989,0,0,0,16.968-16.968V495.79a16.989,16.989,0,0,0-16.968-16.968Zm14.015,226.7a14.036,14.036,0,0,1-14.015,14.015H725.079a14.026,14.026,0,0,1-14.015-14.015V495.79a14.027,14.027,0,0,1,14.015-14.015H934.815a14.036,14.036,0,0,1,14.015,14.015Zm-113.6,14.015c-.074.975-.148,1.964-.221,2.954h63.635c.118-.975.251-1.964.369-2.954Z" transform="translate(-106.004 -142.918)" fill="#d6d6d6"/>
    </g>
    <g id="Group_128" data-name="Group 128" transform="translate(0 20)">
      <path id="Path_483" data-name="Path 483" d="M396.8,586.263l-8.772,82.789-.31,2.954H363.981c.281-.96.561-1.949.857-2.954,6.734-23.1,15.905-56.812,14.915-65.747-1.55-13.941,9.3-18.593,9.3-18.593l.679.133Z" transform="translate(-270.085 -92.429)" fill="#0eafe1"/>
      <circle id="Ellipse_74" data-name="Ellipse 74" cx="36.272" cy="36.272" r="36.272" transform="translate(128.712 395.735)" fill="#a0616a"/>
      <path id="Path_484" data-name="Path 484" d="M476.891,658.358a59.473,59.473,0,0,0-4.474,10.574c-.428,1.3-.841,2.658-1.226,4.046-.28.96-.531,1.949-.782,2.954H374.741c.133-.975.251-1.964.384-2.954,4.888-38.618,8.846-77.813,9.481-84.207.059-.605.089-.916.089-.916,57.329-30.215,99.167,9.3,99.167,9.3s.059.281.148.827C484.925,603.51,489.592,635.763,476.891,658.358Z" transform="translate(-264.955 -96.356)" fill="#0eafe1"/>
      <path id="Path_485" data-name="Path 485" d="M442.941,662.021l-6.38-13.675,1.55-54.228,16.422-3.042.576-.1a43.485,43.485,0,0,1,18.637,21.738c3.19,7.975,9.259,31.958,14.384,53.357.237.989.472,1.979.709,2.954H446.2l-1.374-2.954Z" transform="translate(-235.479 -89.445)" fill="#0eafe1"/>
      <path id="Path_486" data-name="Path 486" d="M553.585,478.822H343.85a16.989,16.989,0,0,0-16.969,16.968V705.526a16.989,16.989,0,0,0,16.969,16.968H553.585a16.979,16.979,0,0,0,16.968-16.968V495.79a16.979,16.979,0,0,0-16.968-16.969Zm14.014,226.7a14.026,14.026,0,0,1-14.014,14.015H343.85a14.036,14.036,0,0,1-14.015-14.015V495.79a14.036,14.036,0,0,1,14.015-14.015H553.585A14.026,14.026,0,0,1,567.6,495.79ZM405.712,719.541l-.31,2.954h87.826c.251-1,.5-1.994.782-2.954Z" transform="translate(-287.775 -142.918)" fill="#d6d6d6"/>
      <path id="Path_491" data-name="Path 491" d="M444.827,591.864a7.166,7.166,0,0,0,9.372.6c8.549-6.337,16.053-14.225,20.495-23.846,5.089-11.024,5.657-24.552-.479-35.03-5.187-8.857-14.346-14.573-23.475-19.266a41.754,41.754,0,0,0-11.333-4.368,16.151,16.151,0,0,0-11.743,1.895,10.142,10.142,0,0,0-4.579,10.472,38.171,38.171,0,0,0-16.293-10.937,21.07,21.07,0,0,0-12.443-.9c-5.793,1.643-10.022,6.79-12.335,12.349a24.7,24.7,0,0,0-1.864,13.476,16.462,16.462,0,0,0,7.193,11.275c4.789,2.963,10.9,2.75,16.4,1.539s10.825-3.316,16.432-3.849,11.85.866,15.263,5.346c2.4,3.155,3.02,7.278,3.559,11.208l2.806,20.438a24.929,24.929,0,0,0,2.23,8.54,4.922,4.922,0,0,0,.795,1.061Z" transform="translate(-262.494 -128.255)" fill="#333"/>
    </g>
  </g>
</svg>
