<svg xmlns="http://www.w3.org/2000/svg" xmlns:xlink="http://www.w3.org/1999/xlink" width="205.482" height="236.797" viewBox="0 0 205.482 236.797">
  <defs>
    <filter id="Ellipse_31" x="65.58" y="72.549" width="77.777" height="77.777" filterUnits="userSpaceOnUse">
      <feOffset dy="3" input="SourceAlpha"/>
      <feGaussianBlur stdDeviation="2" result="blur"/>
      <feFlood flood-opacity="0.122"/>
      <feComposite operator="in" in2="blur"/>
      <feComposite in="SourceGraphic"/>
    </filter>
  </defs>
  <g id="avatar_one" data-name="avatar one" transform="translate(0 13.339)">
    <path id="Path_446" data-name="Path 446" d="M103.176-4.955C114.462-7.664,195.1,47.71,195.1,47.71s8.359,36.8,8.359,54.366c0,19.357-8.94,50.372-8.94,50.372s-27.983,16.416-39.605,28.14c-25.432,25.655-32.339,24.108-53.183,24.108-17.922,0-26.936-15.546-41.731-23.849-15.431-8.661-49.722-26.824-49.722-26.824L2.428,102.029S.9,64.823,12.238,47.71c5.741-8.664,17.821-14.021,26.824-18.972C65.231,14.345,92.9-2.49,103.176-4.955Z" transform="translate(0 5.051)" fill="#fff"/>
    <path id="Path_212" data-name="Path 212" d="M296.846,267.608H246.19V199.05l43.8,24Z" transform="translate(-150.809 -127.313)" fill="#333"/>
    <path id="Path_213" data-name="Path 213" d="M210.665,326.617,209.179,311.6l29.671-5.548,17.52,42.658L225.9,383.749l-21.71-42.658Z" transform="translate(-125.067 -192.423)" fill="#ffb6b6"/>
    <path id="Path_214" data-name="Path 214" d="M232.843,391.035c-.369.385-.746.766-1.124,1.143-1.2,1.2-10.328,1.226-11.573,2.353-18.663,16.926-59.753,39.021-59.753,39.021s-36.337-18.977-52.527-29.156c-3.135-1.971-4.9-2.5-8.017-5.021-.011-.008-2.015-1.24-2.026-1.251-.545-.438-2.365.453-2.9,0,.1-.274.2-.545.3-.811A46.609,46.609,0,0,1,119.3,371.705a35.777,35.777,0,0,1,5.755-2.179l8.12-14.626,5.717,10.665,4.212,7.861,17.284,32.249L175.3,368.548l4.62-11.51,1.185-2.948,5.633,4.384,5.332,4.148,10.737,2.369,8.711,1.923,11.83,2.613c4.784,3.9,7.694,11.308,9.32,20.518.061.328.118.659.171.99Z" transform="translate(-56.152 -222.166)" fill="#0eafe1"/>
    <path id="Path_217" data-name="Path 217" d="M175.184,30.057A102.62,102.62,0,0,0,0,102.62a101.841,101.841,0,0,0,25.188,67.348q2.332,2.679,4.869,5.216c.4.4.8.795,1.2,1.181q1.62,1.568,3.3,3.059,1.018.909,2.06,1.782c.544.459,1.088.91,1.64,1.354a.193.193,0,0,0,.031.027,102.647,102.647,0,0,0,133.187-3.873q1.892-1.713,3.707-3.53c.382-.382.764-.768,1.138-1.157q1.562-1.609,3.04-3.272a102.626,102.626,0,0,0-4.178-140.7Zm3.927,139.737c-.964,1.1-1.952,2.176-2.963,3.229q-2.361,2.459-4.876,4.761c-.637.586-1.281,1.157-1.933,1.724a101.888,101.888,0,0,1-21.82,14.517q-4.161,2.054-8.526,3.731a101.538,101.538,0,0,1-84.585-5.44q-.92-.5-1.829-1.011a101.219,101.219,0,0,1-9.228-5.906q-3.316-2.378-6.427-5.015c-.725-.613-1.443-1.234-2.149-1.871q-1.725-1.534-3.376-3.156-3.125-3.061-5.976-6.377a101.848,101.848,0,1,1,153.688.814Z" transform="translate(0 4.445)" fill="none"/>
    <g transform="matrix(1, 0, 0, 1, 0, -13.34)" filter="url(#Ellipse_31)">
      <circle id="Ellipse_31-2" data-name="Ellipse 31" cx="32.888" cy="32.888" r="32.888" transform="translate(71.58 75.55)" fill="#ffb6b6"/>
    </g>
    <path id="Path_215" data-name="Path 215" d="M224.657,143.109a24.814,24.814,0,0,1,40.124-3.5c3.045,3.536,5.042,7.867,8.011,11.468,6.388,7.749,17.281,12.28,20.072,21.927,1.218,4.21.611,8.7-.005,13.043L291.274,197.2c-.411,2.894-.805,5.945.28,8.659,1.273,3.184,4.32,5.27,6.29,8.077a13.926,13.926,0,0,1-.571,16.3c-1.6,1.965-3.71,3.446-5.382,5.346s-2.913,4.5-2.212,6.928c1.342,4.659,8.648,5.776,9.449,10.557.41,2.445-1.279,4.886-3.491,6a12.728,12.728,0,0,1-7.277.851,29.894,29.894,0,0,1-23.428-42.435c3.3-7,9.44-13.18,9.373-20.918-.036-4.215-1.97-8.152-3.86-11.919l-11.608-23.133c-2.073-4.131-4.478-8.582-8.745-10.356-3.3-1.371-7.04-.84-10.567-.279s-7.264,1.107-10.572-.241-5.807-5.351-4.231-8.556" transform="translate(-137.067 -84.041)" fill="#333"/>
    <path id="Path_216" data-name="Path 216" d="M178.563,162.489c-6.354-2.092-13.482,1.266-17.784,6.389s-6.388,11.7-8.376,18.082l-3.416,10.976-3.213,10.325c-1.26,4.048-2.53,8.349-1.5,12.461.747,2.973,2.671,5.672,2.712,8.737.043,3.2-1.962,6.012-3.719,8.689s-3.406,5.857-2.569,8.947c1.273,4.7,7.809,7.284,7.45,12.141-.12,1.621-1.057,3.12-1.04,4.745a5.525,5.525,0,0,0,3.537,4.678,14.586,14.586,0,0,0,6.1.832,94.438,94.438,0,0,0,18.864-2.244,18.236,18.236,0,0,0,6.787-2.6,7.092,7.092,0,0,0,3.2-6.207c-.4-3.782-4.468-5.927-6.52-9.129-2.015-3.145-1.969-7.13-2.838-10.763-1.194-4.993-4.144-9.351-6.358-13.983-8.325-17.412-5.411-39.606,7.127-54.279a11.905,11.905,0,0,0,2.782-4.245c.462-1.643-.134-3.735-1.74-4.31" transform="translate(-86.084 -103.987)" fill="#333"/>
    <path id="Path_445" data-name="Path 445" d="M147.091,287.967,44.4,228.291V110.855L147.091,51.18l102.79,59.675V228.3l-102.79,59.675ZM58.283,220.3l88.809,51.613L236,220.3V118.847L147.091,67.234,58.283,118.847V220.309Z" transform="translate(-44.4 -64.519)" fill="#0eafe1"/>
  </g>
</svg>
