<svg xmlns="http://www.w3.org/2000/svg" xmlns:xlink="http://www.w3.org/1999/xlink" width="205.482" height="236.797" viewBox="0 0 205.482 236.797">
  <defs>
    <filter id="Ellipse_32" x="67.649" y="72.216" width="79.89" height="79.889" filterUnits="userSpaceOnUse">
      <feOffset dy="3" input="SourceAlpha"/>
      <feGaussianBlur stdDeviation="2" result="blur"/>
      <feFlood flood-opacity="0.122"/>
      <feComposite operator="in" in2="blur"/>
      <feComposite in="SourceGraphic"/>
    </filter>
  </defs>
  <g id="avatar_three" data-name="avatar three" transform="translate(0.154 12.745)">
    <path id="Path_442" data-name="Path 442" d="M101.61-5.683c23.38-1.309,106.814,35.329,101.728,106.35S169.151,184.195,101.61,201.949c-24.517,6.445-35.353-8.831-49.876-18.556C2.339,155.914,7.073,141.9-.118,100.667-11.408,35.933,78.23-4.374,101.61-5.683Z" transform="translate(1.097 5.717)" fill="#fff"/>
    <path id="Path_218" data-name="Path 218" d="M244.881,317.656l4.931-30.821-33.287-13.561-4.931,46.848Z" transform="translate(-129.03 -166.381)" fill="#a0616a"/>
    <path id="Path_219" data-name="Path 219" d="M211.2,413.443c-2.858,1.432-1.632,2.19-4.588,3.337-5.912,2.3-9.849,5.787-16.109,6.945a102.65,102.65,0,0,1-43.767-1.4,100.1,100.1,0,0,1-9.586-2.937c-.332-.123-.67-.246-1-.369a101.688,101.688,0,0,1-11.513-5.124c-.5-.257-1-.521-1.5-.8-.555-.291-1.105-.6-1.66-.917-.708-.4-1.41-.811-2.112-1.231-2.352-1.4-4.665-2.909-6.875-4.481l-.147-.1c-.131-.1-.261-.185-.386-.28.082-.442.158-.845.229-1.2.272-1.4.452-2.176.452-2.176l14.9-31.641,4.154-8.816,2.025-.856,15.3-6.461H186.4l11.8,5.012s.06.229.18.671a437.1,437.1,0,0,0,18.872,51.476c.147.335-2.55.232-2.4.573l-3.649.782Z" transform="translate(-68.198 -216.232)" fill="#0eafe1"/>
    <g transform="matrix(1, 0, 0, 1, -0.15, -12.74)" filter="url(#Ellipse_32)">
      <circle id="Ellipse_32-2" data-name="Ellipse 32" cx="33.945" cy="33.945" r="33.945" transform="translate(73.65 75.22)" fill="#a0616a"/>
    </g>
    <path id="Path_220" data-name="Path 220" d="M105.288,370.32l-.058.292L94.88,419.818l-.09.428-.144.678c-.557-.284-1.106-.584-1.659-.892-.709-.389-1.41-.791-2.115-1.2C88.524,417.473,86.21,416,84,414.474l-.148-.1c-.129-.09-.261-.179-.386-.269q-2.536-1.77-4.947-3.681a.194.194,0,0,1-.031-.027,104.157,104.157,0,0,1-8.281-7.447q-2.559-2.559-4.915-5.266l.238-1,.023-.1.3-1.27a29,29,0,0,1,22.762-21.8l14.91-2.855,1.768-.335Z" transform="translate(-39.711 -225.629)" fill="#0eafe1"/>
    <path id="Path_221" data-name="Path 221" d="M372.579,406.884a104.337,104.337,0,0,1-14.072,10.1c-.484.294-.98.582-1.475.871q-3.168,1.829-6.44,3.419-4.287,2.09-8.726,3.767l-.229-1.078L329.95,368.387l1.513.289,15.166,2.907a28.994,28.994,0,0,1,22.76,21.807l2.9,12.286.289,1.208h0Z" transform="translate(-201.286 -224.449)" fill="#0eafe1"/>
    <path id="Path_222" data-name="Path 222" d="M229.412,175.85c-.882,3.288-5.318,17.981-16.679,21.072-2.232.61-7.556,1.312-6.146,0,.321-.3.631-.593.942-.882,12.33-11.595,17.36-18.682,15.063-34.415-1.459-10.017-18.073-19.113-27.42-20.017A15.623,15.623,0,0,0,182.88,146c-5.482,5.661-4.578,23.038-7.616,33.245-.817,2.732-1.911,4.954-3.484,6.3-.98.838-1.606-.229-2.069-1.976-.985-3.713-1.241-10.512-2.64-8.59-4.045,5.569-.191,12.95.974,15.8.239.583.484,1.143.729,1.677v.005c.142.3.289.61.43.9v.005c3.887,7.926,8.557,10.762,12.673,15.7a30.671,30.671,0,0,1,4.513,7.186,32.047,32.047,0,0,1,2.074,6.157c2.357,10.18-.441,19.429-1.2,21.944-1.584,5.237-4.306,14.235-12.292,19.314-10.027,6.38-19.178.757-23.555,6.816-.054.071-.1.141-.152.212a7.474,7.474,0,0,0-.436.735,103.13,103.13,0,0,1-11.513-4.986c-.5-.25-1-.507-1.5-.779-.555-.283-1.105-.582-1.66-.893-.022-.425-.044-.849-.06-1.279a89.366,89.366,0,0,1,2-23.533,127.584,127.584,0,0,1,4.126-15.193,49.636,49.636,0,0,1,4.469-9.368,42.469,42.469,0,0,1,5.455-7.05c4.758-4.97,8.988-7.044,9.657-12.292.958-7.49-6.843-9.744-9.657-21.072-1.921-7.746-3.93-18.911-1.981-26.434,1.84-7.109,3.44-13.277,8.781-19.32,1.285-1.448,11.829-11.519,24.045-13.174,5.629-.756,10.648,6.451,17.452,8,7.822,1.78,12.3,2.8,16.679,6.146,7.4,5.65,9.483,14.1,11.415,21.949,1.513,6.141,3.473,14.083.876,23.707h0Z" transform="translate(-82.883 -70.36)" fill="#333"/>
    <path id="Path_441" data-name="Path 441" d="M147.091,287.967,44.4,228.292V110.855L147.091,51.18l102.791,59.675V228.3L147.091,287.977ZM58.283,220.3l88.809,51.613L236,220.3V118.848L147.091,67.234,58.283,118.848V220.309Z" transform="translate(-44.554 -63.925)" fill="#0eafe1"/>
  </g>
</svg>
