<svg xmlns="http://www.w3.org/2000/svg" xmlns:xlink="http://www.w3.org/1999/xlink" width="206.192" height="236.797" viewBox="0 0 206.192 236.797">
  <defs>
    <filter id="Ellipse_30" x="64.671" y="79.094" width="79.474" height="79.474" filterUnits="userSpaceOnUse">
      <feOffset dy="3" input="SourceAlpha"/>
      <feGaussianBlur stdDeviation="2" result="blur"/>
      <feFlood flood-opacity="0.122"/>
      <feComposite operator="in" in2="blur"/>
      <feComposite in="SourceGraphic"/>
    </filter>
  </defs>
  <g id="avatar_two" data-name="avatar two" transform="translate(0 15.17)">
    <path id="Path_444" data-name="Path 444" d="M101.728,0c38.429,0,75.993,23.806,93.425,55.762a60.592,60.592,0,0,1,4.319,9.962c3.721,11.107,3.984,22.981,3.984,36.9,0,18.533.351,37.345-8.3,52.589-15.6,18.369-55.614,50.032-93.425,50.032-30.564,0-94.482-50.032-94.482-50.032V60.858S12.433,42.948,42.8,25.09C57.705,16.322,83.076,0,101.728,0Z" transform="translate(0.83 0)" fill="#fff"/>
    <path id="Path_208" data-name="Path 208" d="M199.288,330.056l7.033-17.973,36.336-5.47,3.9,39.784-36.726.781Z" transform="translate(-122.804 -188.104)" fill="#ffb6b6"/>
    <g transform="matrix(1, 0, 0, 1, 0, -15.17)" filter="url(#Ellipse_30)">
      <circle id="Ellipse_30-2" data-name="Ellipse 30" cx="33.737" cy="33.737" r="33.737" transform="translate(70.67 82.09)" fill="#ffb6b6"/>
    </g>
    <path id="Path_209" data-name="Path 209" d="M248.252,179.832c-.438,1.754-1.323,5.931-2.705,5.951-1.129.016-2.21-18.1-1.082-21.1,1.3-3.443-2.109-7.8-4.674-10.035-4.612-4.02-14.85,4.612-25.26.7-.276-.1-.221-.092-3.508-1.4-10.115-4.036-10.647-4.152-11.227-4.21-4.9-.485-10.888,3.527-13.332,8.42-2.54,5.086-.418,9.448-2.807,21.751-.278,1.434-.716,3.478-1.4,3.508-1.257.055-2.485-6.661-2.807-8.42-1.347-7.369-2.646-14.474,0-22.453.289-.87,2.067-4.1,5.613-10.525,5.108-9.255,7.677-13.9,8.42-14.735,5.325-5.988,15.017-11.451,23.155-9.122,4.113,1.177,3.376,3.07,8.42,4.912,8.989,3.282,16.8-.732,18.243,2.1.763,1.5-1.372,2.742-1.4,5.613-.053,4.927,6.179,6.351,9.823,11.227,1.959,2.621,5.313,2.649-3.466,37.813h0Z" transform="translate(-109.78 -72.947)" fill="#333"/>
    <path id="Path_210" data-name="Path 210" d="M231.018,386.993q-2.04,2.292-4.231,4.485a103.25,103.25,0,0,1-73.488,30.44c-23.993,0-40.283-9.39-58.689-24.256-.012-.008-4.455,1.326-4.467,1.314-2.442-1.969-6.831-4.091-9.113-6.3q.064-.516.141-1.02c.32-2.266.676-4.427,1.074-6.415,3.262-16.3,46.189-33.413,47.307-33.859.016,0,1.824-.572,1.824-.572s3.724,20.928,27.4,20.666c16.124-.176,14.866-20.094,14.866-20.094s.091-.078.458,0c4.657.989,35.23,8.2,47.986,17.895,3.888,2.954,6.677,9.244,8.681,16.745.086.321.168.649.254.973Z" transform="translate(-51.986 -216.677)" fill="#0eafe1"/>
    <path id="Path_211" data-name="Path 211" d="M175.184,30.057A102.621,102.621,0,0,0,0,102.621a101.841,101.841,0,0,0,25.188,67.348q2.332,2.679,4.869,5.216c.4.4.8.795,1.2,1.18q3.38,3.275,7,6.2a.178.178,0,0,0,.031.027,102.643,102.643,0,0,0,136.894-7.4q2.164-2.164,4.178-4.429a102.626,102.626,0,0,0-4.178-140.7Zm3.927,139.738a102.545,102.545,0,0,1-31.592,24.232q-4.161,2.054-8.526,3.731a101.534,101.534,0,0,1-84.585-5.44q-.92-.5-1.829-1.01A102.713,102.713,0,0,1,31.4,175.358q-3.125-3.061-5.976-6.377a101.848,101.848,0,1,1,153.688.814Z" transform="translate(0 0)" fill="none"/>
    <path id="Path_443" data-name="Path 443" d="M147.091,287.967,44.4,228.292V110.855L147.091,51.18l102.791,59.675V228.3L147.091,287.977ZM58.283,220.3l88.809,51.613L236,220.3V118.848L147.091,67.234,58.283,118.848V220.309Z" transform="translate(-43.69 -66.35)" fill="#0eafe1"/>
  </g>
</svg>
