<svg xmlns="http://www.w3.org/2000/svg" xmlns:xlink="http://www.w3.org/1999/xlink" width="400" height="328" viewBox="0 0 400 328">
  <defs>
    <filter id="Path_111" x="172.94" y="117.323" width="183.206" height="110.834" filterUnits="userSpaceOnUse">
      <feOffset dx="-2" input="SourceAlpha"/>
      <feGaussianBlur stdDeviation="1.5" result="blur"/>
      <feFlood flood-opacity="0.059"/>
      <feComposite operator="in" in2="blur"/>
      <feComposite in="SourceGraphic"/>
    </filter>
    <filter id="Path_119" x="109.162" y="60.863" width="211.738" height="169.536" filterUnits="userSpaceOnUse">
      <feOffset dx="-2" input="SourceAlpha"/>
      <feGaussianBlur stdDeviation="2.5" result="blur-2"/>
      <feFlood flood-opacity="0.059"/>
      <feComposite operator="in" in2="blur-2"/>
      <feComposite in="SourceGraphic"/>
    </filter>
    <filter id="Path_124" x="240.51" y="100.958" width="69.965" height="116.372" filterUnits="userSpaceOnUse">
      <feOffset dy="3" input="SourceAlpha"/>
      <feGaussianBlur stdDeviation="3" result="blur-3"/>
      <feFlood flood-opacity="0.161"/>
      <feComposite operator="in" in2="blur-3"/>
      <feComposite in="SourceGraphic"/>
    </filter>
    <filter id="Path_128" x="279.995" y="74.258" width="48.109" height="65.423" filterUnits="userSpaceOnUse">
      <feOffset dy="3" input="SourceAlpha"/>
      <feGaussianBlur stdDeviation="2" result="blur-4"/>
      <feFlood flood-opacity="0.161"/>
      <feComposite operator="in" in2="blur-4"/>
      <feComposite in="SourceGraphic"/>
    </filter>
  </defs>
  <g id="card_one_illustration" data-name="card one illustration" transform="translate(3.371)">
    <g id="Rectangle_120" data-name="Rectangle 120" transform="translate(-3.371)" fill="#fff" stroke="#888" stroke-width="2">
      <rect width="400" height="328" rx="10" stroke="none"/>
      <rect x="1" y="1" width="398" height="326" rx="9" fill="none"/>
    </g>
    <path id="Path_110" data-name="Path 110" d="M469.969,424.194a1.543,1.543,0,0,0,1.118-2.674l-.106-.42.042-.1a4.142,4.142,0,0,1,7.641.028c1.25,3.01,2.841,6.025,3.233,9.208a12.256,12.256,0,0,1-.215,4.215,49.133,49.133,0,0,0,4.469-20.406,47.416,47.416,0,0,0-.294-5.29q-.244-2.16-.676-4.289a49.7,49.7,0,0,0-9.856-21.065,13.227,13.227,0,0,1-5.5-5.707,10.094,10.094,0,0,1-.918-2.757c.268.035,1.01-4.044.808-4.294.373-.566,1.041-.848,1.449-1.4,2.027-2.748,4.82-2.269,6.278,1.466,3.115,1.572,3.145,4.179,1.234,6.686-1.216,1.6-1.383,3.754-2.45,5.462.11.141.224.277.334.417a50.02,50.02,0,0,1,5.221,8.271,20.8,20.8,0,0,1,1.241-9.659c1.188-2.867,3.416-5.281,5.377-7.759a4.268,4.268,0,0,1,7.6,2.1c0,.037.008.073.012.11q-.437.247-.856.523a2.092,2.092,0,0,0,.844,3.808l.043.007a20.82,20.82,0,0,1-.549,3.113c2.516,9.731-2.916,13.275-10.673,13.434-.171.088-.338.176-.509.259a51.054,51.054,0,0,1,2.748,12.934,48.428,48.428,0,0,1-.035,7.819l.013-.092a12.8,12.8,0,0,1,4.368-7.389c3.362-2.762,8.111-3.778,11.738-6a2.4,2.4,0,0,1,3.678,2.336l-.015.1a14.046,14.046,0,0,0-1.576.76q-.437.247-.856.523a2.092,2.092,0,0,0,.844,3.808l.043.007.088.013a20.836,20.836,0,0,1-3.833,6c-1.573,8.495-8.331,9.3-15.559,6.827h0a51.039,51.039,0,0,1-3.429,10.01H470.276c-.044-.136-.084-.277-.123-.413a13.913,13.913,0,0,0,3.389-.2c-.909-1.115-1.818-2.239-2.726-3.354a.745.745,0,0,1-.057-.066c-.461-.571-.926-1.137-1.387-1.708h0a20.386,20.386,0,0,1,.6-5.193h0Z" transform="translate(-150.173 -109.495)" fill="#f2f2f2"/>
    <g transform="matrix(1, 0, 0, 1, -3.37, 0)" filter="url(#Path_111)">
      <path id="Path_111-2" data-name="Path 111" d="M432.759,205.129c-3.249,20.542-20.637,48.737-44.536,75.927h-129.2l13.506-85.4c31.513.136,71.209-9.564,103.266-14.125C411.076,176.518,437.089,177.728,432.759,205.129Z" transform="translate(-79.59 -57.4)" fill="#f7f7f7"/>
    </g>
    <path id="Path_112" data-name="Path 112" d="M126.845,291.868H58.769a6.829,6.829,0,0,1-6.825-6.825V245.2c1.516-1.55,3.032-3.066,4.527-4.547,25.347-25.042,46.956-39.574,59.81-14.988,7.695,14.723,11.053,38.745,10.563,66.206Z" transform="translate(-16.636 -68.21)" fill="#f2f2f2"/>
    <g id="Group_42" data-name="Group 42" transform="translate(38.574 26.721)">
      <ellipse id="Ellipse_18" data-name="Ellipse 18" cx="8.472" cy="8.293" rx="8.472" ry="8.293" transform="translate(0 0.218)" fill="#0eafe1"/>
      <path id="Path_114" data-name="Path 114" d="M146.3,44.986H100.7a2.837,2.837,0,0,1,0-5.674h45.6a2.837,2.837,0,0,1,0,5.674Z" transform="translate(-69.917 -39.311)" fill="#d6d6d6"/>
      <path id="Path_115" data-name="Path 115" d="M181.89,59.113H100.7a2.837,2.837,0,0,1,0-5.674H181.89a2.837,2.837,0,0,1,0,5.674Z" transform="translate(-69.917 -43.836)" fill="#d6d6d6"/>
    </g>
    <path id="Path_116" data-name="Path 116" d="M389.709,98.835a9.763,9.763,0,1,1,9.763-9.764A9.774,9.774,0,0,1,389.709,98.835Zm0-18.167a8.4,8.4,0,1,0,8.4,8.4A8.414,8.414,0,0,0,389.709,80.667Z" transform="translate(-121.682 -25.399)" fill="#333"/>
    <path id="Path_117" data-name="Path 117" d="M439.345,98.835a9.763,9.763,0,1,1,9.764-9.764A9.775,9.775,0,0,1,439.345,98.835Zm0-18.167a8.4,8.4,0,1,0,8.4,8.4A8.414,8.414,0,0,0,439.345,80.667Z" transform="translate(-137.579 -25.399)" fill="#333"/>
    <circle id="Ellipse_19" data-name="Ellipse 19" cx="5.191" cy="5.191" r="5.191" transform="translate(296.575 58.482)" fill="#333"/>
    <path id="Path_118" data-name="Path 118" d="M488.981,98.835a9.763,9.763,0,1,1,9.764-9.764A9.774,9.774,0,0,1,488.981,98.835Zm0-18.167a8.4,8.4,0,1,0,8.4,8.4A8.413,8.413,0,0,0,488.981,80.667Z" transform="translate(-153.475 -25.399)" fill="#333"/>
    <path id="Path_120" data-name="Path 120" d="M367,267.9H58.449a7.513,7.513,0,0,1-7.5-7.5V143.539a7.513,7.513,0,0,1,7.5-7.5H367a7.513,7.513,0,0,1,7.5,7.5V260.4a7.513,7.513,0,0,1-7.5,7.5ZM58.449,137.395a6.152,6.152,0,0,0-6.145,6.145V260.4a6.152,6.152,0,0,0,6.145,6.145H367a6.152,6.152,0,0,0,6.145-6.145V143.539A6.152,6.152,0,0,0,367,137.394H58.449Z" transform="translate(-16.316 -43.567)" fill="#888"/>
    <path id="Path_130" data-name="Path 130" d="M490.382,95.813a.68.68,0,0,1-.456-1.184l3.772-3.415-3.415-3.772a.68.68,0,0,1,1.008-.912l3.871,4.276a.679.679,0,0,1-.048.96l-4.276,3.871A.677.677,0,0,1,490.382,95.813Z" transform="translate(-156.833 -27.641)" fill="#333"/>
    <path id="Path_131" data-name="Path 131" d="M394.963,95.813a.677.677,0,0,1-.456-.176l-4.276-3.871a.679.679,0,0,1-.048-.96l3.871-4.276a.68.68,0,1,1,1.008.912l-3.415,3.772,3.772,3.415a.68.68,0,0,1-.456,1.184Z" transform="translate(-124.905 -27.641)" fill="#333"/>
    <g transform="matrix(1, 0, 0, 1, -3.37, 0)" filter="url(#Path_119)">
      <path id="Path_119-2" data-name="Path 119" d="M340.686,247.571H179.519c-4.412-29.934-18.959-66.168-27.724-95.916-9.642-32.736-12.286-57.62,13.282-57.62,27.326,0,72.941,24.943,110.843,57.62,34.693,29.9,62.93,66.272,64.764,95.916Z" transform="translate(-25.79 -25.17)" fill="#fff" stroke="#d6d6d6" stroke-width="1"/>
    </g>
    <g id="Group_45" data-name="Group 45" transform="translate(235.517 66.472)">
      <path id="Path_121" data-name="Path 121" d="M410.162,450.253h5.44l2.589-20.986h-8.03Z" transform="translate(-365.706 -195.305)" fill="#ffb6b6"/>
      <path id="Path_122" data-name="Path 122" d="M381.988,450.253h5.44l2.589-20.986h-8.03Z" transform="translate(-357.201 -195.305)" fill="#ffb6b6"/>
      <path id="Path_123" data-name="Path 123" d="M365.516,283.874l7.37,58.656,4.013,51.38h9.277l4.772-52.182-.8-38.134,5.62,36.528-1.094,53.788h10.317l8.84-52.985-.739-60.687Z" transform="translate(-352.229 -150.315)" fill="#333"/>
      <g id="Group_43" data-name="Group 43" transform="translate(0 52.072)">
        <path id="Path_125" data-name="Path 125" d="M348.049,276.072l3.324-13.4,7.92.83-4.018,14.044a4.622,4.622,0,1,1-7.226-1.473Z" transform="translate(-346.483 -197.083)" fill="#ffb6b6"/>
        <path id="Path_126" data-name="Path 126" d="M362.347,168.731l-5.89,1.512c-2.042.175-5.5,13.633-3.815,16.549,0,0-2.593,23.622-1.174,25.847s-1.679,29.191-1.679,29.191l10.719.056,8.337-51.829-7.457-15.433c-.085-2.6,3.554-6.115.959-5.893Z" transform="translate(-347.481 -168.721)" fill="#0eafe1"/>
      </g>
      <circle id="Ellipse_20" data-name="Ellipse 20" cx="13.657" cy="13.657" r="13.657" transform="translate(22.623 11.306)" fill="#ffb6b6"/>
      <path id="Path_129" data-name="Path 129" d="M401.674,113.752c-.412,1.983,2.255,4.5,1.843,6.478a6.957,6.957,0,0,1-1.613,3.756c-.949.928-2.367,1.354-3.407,2.2a4.29,4.29,0,0,0-1.431,4.642c.37,1.068,1.18,2.192,1.11,3.225a1.567,1.567,0,0,1-.237.761c-.628,1.054-2.22,1.18-3.546,1.18h-6.639a11.017,11.017,0,0,1-10.5-7.833c-.216-.691-.44-1.34-.677-1.906a32.716,32.716,0,0,1-2.073-7.044c-.4-2.241,1.759-3.344,2.688-5.459,1.012-2.325.928-5.361,3.407-6.478s5.1.51,7.833.056l.1-.021c3.26-.586,6.772-3.142,9.962-2.367a10.219,10.219,0,0,1,4.838,2.667,9.73,9.73,0,0,1-2.792.956,13.357,13.357,0,0,1,3.889.517,5.27,5.27,0,0,1,.635,1.962c.119,1.033-2.876,1.585-3.344,2.562a.606.606,0,0,0-.049.147Z" transform="translate(-354.927 -97.351)" fill="#333"/>
      <g transform="matrix(1, 0, 0, 1, -238.89, -66.47)" filter="url(#Path_124)">
        <path id="Path_124-2" data-name="Path 124" d="M395.416,152.124h-15.93l-4.943,6.721L361.7,164.818l7.627,46.67-5.218,34.722s36.528,11.2,48.57-2.614c1.32-1.743,1.471-3.7-.506-6.056l-2.3-27.547.4-47.79-12.444-4.48-2.408-5.6Z" transform="translate(-112.19 -45.17)" fill="#0eafe1"/>
      </g>
      <g id="Group_44" data-name="Group 44" transform="translate(47.107)">
        <path id="Path_127" data-name="Path 127" d="M435.981,101.89l3.522,12.626L447,113.51l-4.2-13.216a4.388,4.388,0,1,0-6.817,1.6Z" transform="translate(-420.13 -94.131)" fill="#ffb6b6"/>
        <g transform="matrix(1, 0, 0, 1, -286, -66.47)" filter="url(#Path_128)">
          <path id="Path_128-2" data-name="Path 128" d="M414.161,158.453h0a6.087,6.087,0,0,0,6.849,4.472c4.845-.78,11.6-2.474,14.762-6.051l9.6-6.626,2.924-2.574a5.227,5.227,0,0,0,1.474-5.669l-11.482-32.426-8.893,2.688,7.837,23.231.454.229c-4.144,1-10.7,6.761-12.566,9.774-3.955-.457-6.56,2.491-8.731,6.537a6.094,6.094,0,0,0-2.228,6.415Z" transform="translate(-127.97 -32.32)" fill="#0eafe1"/>
        </g>
      </g>
    </g>
    <path id="Path_133" data-name="Path 133" d="M399.723,455.9h0c-.05,1.078-1.31,3.756-2.343,4.066-3.106.931-17.9.524-18.469-1.552-1.389,1.283-.03-10.359,1.7-8.867,3.535,3.051,6,1.649,6.49-.821l.587-1.492.115.168c.357.523-.531-1.048.1-1.085.073,0,1.719,3.319,2.251,3.693l.042.068a6.994,6.994,0,0,0,6.723,3.263h0a2.434,2.434,0,0,1,2.8,2.558Z" transform="translate(-121.167 -134.445)" fill="#333"/>
    <path id="Path_132" data-name="Path 132" d="M427.723,455.9h0c-.05,1.078-1.31,3.756-2.343,4.066-3.106.931-17.9.524-18.469-1.552-1.389,1.283-.03-10.359,1.7-8.867,3.535,3.051,6,1.649,6.49-.821l.587-1.492.115.168c.357.523-.531-1.048.1-1.085.073,0,1.719,3.319,2.251,3.693l.042.068a6.994,6.994,0,0,0,6.723,3.263h0a2.434,2.434,0,0,1,2.8,2.558Z" transform="translate(-129.135 -134.445)" fill="#333"/>
  </g>
</svg>
