<svg xmlns="http://www.w3.org/2000/svg" xmlns:xlink="http://www.w3.org/1999/xlink" width="630.977" height="501.48" viewBox="0 0 630.977 501.48">
  <defs>
    <filter id="Path_296" x="532.77" y="73.791" width="98.208" height="171.439" filterUnits="userSpaceOnUse">
      <feOffset dy="3" input="SourceAlpha"/>
      <feGaussianBlur stdDeviation="3" result="blur"/>
      <feFlood flood-opacity="0.122"/>
      <feComposite operator="in" in2="blur"/>
      <feComposite in="SourceGraphic"/>
    </filter>
    <filter id="Path_303" x="50.705" y="100.649" width="114.14" height="179.606" filterUnits="userSpaceOnUse">
      <feOffset dy="3" input="SourceAlpha"/>
      <feGaussianBlur stdDeviation="3" result="blur-2"/>
      <feFlood flood-opacity="0.161"/>
      <feComposite operator="in" in2="blur-2"/>
      <feComposite in="SourceGraphic"/>
    </filter>
    <filter id="Path_307" x="7.848" y="156.895" width="95.787" height="139.471" filterUnits="userSpaceOnUse">
      <feOffset dy="3" input="SourceAlpha"/>
      <feGaussianBlur stdDeviation="3" result="blur-3"/>
      <feFlood flood-opacity="0.161"/>
      <feComposite operator="in" in2="blur-3"/>
      <feComposite in="SourceGraphic"/>
    </filter>
    <filter id="Path_308" x="0" y="117.437" width="108.324" height="108.16" filterUnits="userSpaceOnUse">
      <feOffset dy="3" input="SourceAlpha"/>
      <feGaussianBlur stdDeviation="3" result="blur-4"/>
      <feFlood flood-opacity="0.161"/>
      <feComposite operator="in" in2="blur-4"/>
      <feComposite in="SourceGraphic"/>
    </filter>
    <filter id="Path_310" x="217.651" y="166.833" width="363.409" height="241.398" filterUnits="userSpaceOnUse">
      <feOffset dy="3" input="SourceAlpha"/>
      <feGaussianBlur stdDeviation="3" result="blur-5"/>
      <feFlood flood-opacity="0.161"/>
      <feComposite operator="in" in2="blur-5"/>
      <feComposite in="SourceGraphic"/>
    </filter>
  </defs>
  <g id="contact_page_illustration" data-name="contact page illustration" transform="translate(9)">
    <path id="Path_305" data-name="Path 305" d="M722.071,399.307l-36.882-23.62,18.576-24.694,18.343,22.563,57.152,3.505a10.892,10.892,0,1,1,.61,16.051Z" transform="translate(-568.706 -207.681)" fill="#ffb6b6"/>
    <path id="Path_306" data-name="Path 306" d="M766.2,340.184c-2.141,12.955,38.283,37.692,38.283,37.692,0-3.041,24.127,19.914,25.216,17.392,3.1-7.167,5.271-24.143,9.6-26.86,2.473-1.554-14.9-16.151-14.9-16.151s-9.092-9.16-21.024-20.713a27.836,27.836,0,0,0-25.781-7.536S768.346,327.23,766.2,340.184Z" transform="translate(-683.954 -205.147)" fill="#f7f7f7"/>
    <g transform="matrix(1, 0, 0, 1, -9, 0)" filter="url(#Path_296)">
      <path id="Path_296-2" data-name="Path 296" d="M313.208,349.095l29.556-16.647a109.448,109.448,0,0,0-11.522-51.385c-6.814,30.928-42.675,45.643-59.221,72.647a65.833,65.833,0,0,0-5.345,56.812l-1.944,23.98a110.316,110.316,0,0,0,69.261-61.112,106.56,106.56,0,0,0,7.392-25.69C327.605,349.166,313.208,349.095,313.208,349.095Z" transform="translate(279.19 -201.27)" fill="#f7f7f7"/>
    </g>
    <path id="Path_297" data-name="Path 297" d="M874.578,686.531l-.906-20.378a65.815,65.815,0,0,0-30.7-7.771c14.744,12.054,12.9,35.29,22.9,51.5a39.588,39.588,0,0,0,29.03,18.294l12.338,7.554a66.337,66.337,0,0,0-13.982-53.755,64.074,64.074,0,0,0-11.776-10.942C878.526,678.825,874.578,686.531,874.578,686.531Z" transform="translate(-822.502 -235.853)" fill="#f2f2f2"/>
    <path id="Path_298" data-name="Path 298" d="M564.34,572.941h11.173l5.315-43.092H564.338Z" transform="translate(-480.473 -83.551)" fill="#ffb6b6"/>
    <path id="Path_299" data-name="Path 299" d="M808.559,741.947h36.023v-.456a14.022,14.022,0,0,0-14.02-14.021h0l-6.58-4.992L811.7,727.47h-3.145Z" transform="translate(-727.54 -241.728)" fill="#333"/>
    <path id="Path_300" data-name="Path 300" d="M507.2,572.941h11.172l5.315-43.092H507.2Z" transform="translate(-371.43 -83.551)" fill="#ffb6b6"/>
    <path id="Path_301" data-name="Path 301" d="M751.419,741.947h36.023v-.456a14.022,14.022,0,0,0-14.02-14.021h0l-6.58-4.992-12.277,4.993h-3.145Z" transform="translate(-618.497 -241.728)" fill="#333"/>
    <path id="Path_302" data-name="Path 302" d="M847.447,472.631l-72.668,1.817c-13.8,7.5-14.011,23.72-9.489,42.983,0,0-1.526,11.449,1.527,14.5s4.58,3.053,3.053,8.4,6.539,14.07,5.559,15.049-3.27,6.323-3.27,6.323l7.633,43.507s5.343,75.565,6.87,77.092,3.053,0,1.526,3.816-3.053,2.29-1.526,3.816a56.242,56.242,0,0,1,3.816,4.58h18.454s1.391-7.633,1.391-8.4,1.526-5.343,1.526-6.106S810.5,677.9,810.5,677.9a25.115,25.115,0,0,1-.941-4.757c0-1.526-4.58-60.3-4.58-60.3l9.159-76.328,22.135,74.8s0,65.642,1.526,67.169,1.527.763.763,3.816-3.816,2.29-1.527,4.58,3.053-1.526,2.29,2.29l-.763,3.816,22.9.328s3.053-6.434,1.527-8.724-1.435-1.665.427-5.412,2.626-4.51,1.862-5.274-.763-4.823-.763-4.823L860.7,596.049s-.763-77.092-.763-79.382a7.615,7.615,0,0,1,.634-3.434v-3.108l-2.924-11.014Z" transform="translate(-706.84 -218.829)" fill="#333"/>
    <ellipse id="Ellipse_35" data-name="Ellipse 35" cx="22.578" cy="22.578" rx="22.578" ry="22.578" transform="translate(74.375 57.543)" fill="#ffb6b6"/>
    <g transform="matrix(1, 0, 0, 1, -9, 0)" filter="url(#Path_303)">
      <path id="Path_303-2" data-name="Path 303" d="M833.286,321.6c4.864,2.892,7.774,8.205,9.444,13.612a128.992,128.992,0,0,1,5.543,30.819l1.764,31.316,21.85,66.68c-18.937,16.023-90.117,3.642-90.117,3.642s-2.185-.728,0-2.913,4.312-.249,2.127-2.434-.679.249.05-1.936,0-.728-.728-1.457,5.638-7.283,5.638-7.283l-5.827-38.275-7.283-77.2c8.74-10.925,26.317-17.365,26.317-17.365l4.542-8.175,22.709,1.817Z" transform="translate(-716.04 -203.98)" fill="#f7f7f7"/>
    </g>
    <path id="Path_304" data-name="Path 304" d="M846.037,264.941a10.672,10.672,0,0,0-2.589.34,36.843,36.843,0,0,1-5.068.85,23.483,23.483,0,0,0-21.026,19.918c-1.312-1.144-4.3-3.248-6.744-1.292h0c-.037.031-.059.047-.145.006-1.625-.771-4.51-10.26-4.6-18.615-.046-4.434.652-10.1,4.238-11.89l.189-.094.05-.205c.24-1,2.917-2.7,7.569-4.025,8.455-2.408,21.059-7.1,28.157-.2.537,2.328,2.285,7.309,4.05,7.873,1.955.625,3.643,1.164,3.909,3.562a73.5,73.5,0,0,1-.048,10.246,10.464,10.464,0,0,0-3.717-5.222A7.368,7.368,0,0,0,846.037,264.941Z" transform="translate(-734.697 -198.07)" fill="#333"/>
    <g transform="matrix(1, 0, 0, 1, -9, 0)" filter="url(#Path_307)">
      <path id="Path_307-2" data-name="Path 307" d="M0,36.373,24.4,0,48.691,19.095,25.744,36.956,21.029,94.021a10.892,10.892,0,1,1-16.06.27Z" transform="translate(16.85 176.32) rotate(-16)" fill="#ffb6b6"/>
    </g>
    <g transform="matrix(1, 0, 0, 1, -9, 0)" filter="url(#Path_308)">
      <path id="Path_308-2" data-name="Path 308" d="M56.6.105C43.7-2.309,18.109,37.582,18.109,37.582c3.04.065-20.421,23.7-17.922,24.842,7.1,3.246,24.026,5.781,26.651,10.163C28.339,75.093,43.3,58.036,43.3,58.036s9.35-8.9,21.154-20.58a27.835,27.835,0,0,0,8.08-25.615S69.509,2.52,56.6.105Z" transform="translate(9 143.58) rotate(-16)" fill="#f7f7f7"/>
    </g>
    <path id="Path_309" data-name="Path 309" d="M654.739,744a1.078,1.078,0,0,0,1.081,1.081h254.6a1.081,1.081,0,1,0,0-2.162H655.82A1.078,1.078,0,0,0,654.739,744Z" transform="translate(-654.739 -243.601)" fill="#ccc"/>
    <g transform="matrix(1, 0, 0, 1, -9, 0)" filter="url(#Path_310)">
      <path id="Path_310-2" data-name="Path 310" d="M335.745,383.493H644.738A18.229,18.229,0,0,1,662.947,401.7V594.079c-.011,10.052-8.157,12.8-18.209,12.812H335.745c-10.052-.011-18.2-2.76-18.208-12.812V401.7A18.229,18.229,0,0,1,335.745,383.493Z" transform="translate(-90.89 -210.66)" fill="#0eafe1"/>
    </g>
    <path id="Path_311" data-name="Path 311" d="M339.247,383.493H644.738A18.229,18.229,0,0,1,662.947,401.7V594.079c-.011,10.052-8.157,14.75-18.209,14.762H335.746c-10.052-.011-18.2-4.71-18.209-14.762V401.7C317.548,391.65,329.2,383.5,339.247,383.493ZM329.77,578.552c0,16.514,10.435,16.894,19.816,16.894,86.468,0,254.375.536,288.016,0,9.205-.19,13.077-7.687,13.112-16.894V401.715a6,6,0,0,0-5.974-5.989H335.758a6,6,0,0,0-5.988,5.973Z" transform="translate(-99.887 -210.66)" fill="#333"/>
    <path id="Path_312" data-name="Path 312" d="M379.615,261.538h235.42a10.118,10.118,0,0,1,9.511,6.707l36.359,102.008a10.1,10.1,0,0,1-9.5,13.488l-315.737.56h-.014a10.1,10.1,0,0,1-9.281-14.075l.551.236-.551-.236,43.958-102.568a10.085,10.085,0,0,1,9.281-6.12Z" transform="translate(-105.72 -199.482)" fill="#333"/>
    <path id="Path_313" data-name="Path 313" d="M325.56,382.612a10.123,10.123,0,0,0,.818,3.979l43.955,78.954a10.125,10.125,0,0,0,9.283,6.113H615.033a10.125,10.125,0,0,0,9.52-6.7L660.9,386.563a10.091,10.091,0,0,0-6.122-12.9,9.934,9.934,0,0,0-3.37-.59L612.843,373l-15.742-.027-207.14-.363-15.751-.027-38.541-.073h-.009a10.1,10.1,0,0,0-10.1,10.1Z" transform="translate(-105.721 -209.653)" fill="#333"/>
    <path id="Path_315" data-name="Path 315" d="M399.184,193.221h198.5a20.089,20.089,0,0,1,20.065,20.065V455.225H384.524a9.971,9.971,0,0,1-5.4-1.571V213.286a20.089,20.089,0,0,1,20.065-20.065Z" transform="translate(-110.629 -193.221)" fill="#e6e6e6"/>
    <path id="Path_316" data-name="Path 316" d="M476.529,211.131H585.313A18.294,18.294,0,0,1,603.589,229.4V456.867H396.449V291.211a80.173,80.173,0,0,1,80.08-80.08Z" transform="translate(-112.208 -194.862)" fill="#fff"/>
    <path id="Path_317" data-name="Path 317" d="M434.85,459.421H571.411a4.451,4.451,0,1,1,0,8.9H434.85a4.451,4.451,0,1,1,0-8.9Z" transform="translate(-115.32 -217.618)" fill="#e4e4e4"/>
    <path id="Path_318" data-name="Path 318" d="M434.849,440.041H571.411a4.455,4.455,0,0,1,0,8.911H434.849a4.455,4.455,0,1,1,0-8.911Z" transform="translate(-115.32 -215.842)" fill="#e4e4e4"/>
    <path id="Path_319" data-name="Path 319" d="M434.849,420.671h59.2a4.451,4.451,0,0,1,0,8.9h-59.2a4.451,4.451,0,0,1,0-8.9Z" transform="translate(-37.954 -214.067)" fill="#e4e4e4"/>
    <path id="Path_320" data-name="Path 320" d="M434.849,380.091H571.411a4.455,4.455,0,1,1,0,8.911H434.849a4.455,4.455,0,1,1,0-8.911Z" transform="translate(-115.32 -210.348)" fill="#e4e4e4"/>
    <path id="Path_321" data-name="Path 321" d="M434.85,360.721H571.411a4.451,4.451,0,1,1,0,8.9H434.85a4.451,4.451,0,1,1,0-8.9Z" transform="translate(-115.32 -208.573)" fill="#e4e4e4"/>
    <path id="Path_322" data-name="Path 322" d="M434.848,341.341h59.2a4.455,4.455,0,1,1,0,8.911h-59.2a4.455,4.455,0,1,1,0-8.911Z" transform="translate(-37.954 -206.796)" fill="#e4e4e4"/>
    <path id="Path_323" data-name="Path 323" d="M434.849,300.761H571.411a4.455,4.455,0,0,1,0,8.911H434.849a4.455,4.455,0,1,1,0-8.911Z" transform="translate(-115.32 -203.077)" fill="#0eafe1"/>
    <path id="Path_324" data-name="Path 324" d="M434.849,281.391H571.411a4.455,4.455,0,0,1,0,8.911H434.849a4.455,4.455,0,1,1,0-8.911Z" transform="translate(-115.32 -201.302)" fill="#0eafe1"/>
    <path id="Path_325" data-name="Path 325" d="M434.848,262.011h59.2a4.455,4.455,0,0,1,0,8.911h-59.2a4.455,4.455,0,1,1,0-8.911Z" transform="translate(-37.954 -199.526)" fill="#0eafe1"/>
    <g id="Group_145" data-name="Group 145" transform="translate(-994.372 -3704.881)" opacity="0.63">
      <g id="Layer_2-2" transform="translate(1488.061 4036)">
        <g id="Group_86" data-name="Group 86">
          <path id="Path_437" data-name="Path 437" d="M13.5,31.129,0,23.283V7.846L13.5,0,27.013,7.845V23.283L13.5,31.128Zm-11.674-8.9L13.5,29.018l11.688-6.785V8.9L13.5,2.111,1.825,8.895Z" fill="#f2f2f2"/>
          <path id="Path_438" data-name="Path 438" d="M53.85,72.969,44.4,67.478V56.671l9.45-5.491,9.459,5.491V67.479L53.85,72.97Zm-8.172-6.227,8.172,4.75,8.181-4.75V57.407l-8.181-4.75-8.172,4.75v9.337Z" transform="translate(-40.349 -46.51)" fill="#f2f2f2"/>
        </g>
      </g>
      <text id="TESSERACT" transform="translate(1477.494 4076.141)" fill="#f2f2f2" font-size="6" font-family="Verdana-Bold, Verdana" font-weight="700" letter-spacing="0.2em"><tspan x="0" y="0">TESSERACT</tspan></text>
    </g>
  </g>
</svg>
