<svg xmlns="http://www.w3.org/2000/svg" xmlns:xlink="http://www.w3.org/1999/xlink" width="650.619" height="497.984" viewBox="0 0 650.619 497.984">
  <defs>
    <filter id="Path_135" x="0" y="0" width="650.619" height="497.984" filterUnits="userSpaceOnUse">
      <feOffset dy="3" input="SourceAlpha"/>
      <feGaussianBlur stdDeviation="2.5" result="blur"/>
      <feFlood flood-opacity="0.122"/>
      <feComposite operator="in" in2="blur"/>
      <feComposite in="SourceGraphic"/>
    </filter>
    <filter id="Rectangle_20" x="123.299" y="357.576" width="122.613" height="50.905" filterUnits="userSpaceOnUse">
      <feOffset dy="3" input="SourceAlpha"/>
      <feGaussianBlur stdDeviation="2" result="blur-2"/>
      <feFlood flood-opacity="0.122"/>
      <feComposite operator="in" in2="blur-2"/>
      <feComposite in="SourceGraphic"/>
    </filter>
    <filter id="Rectangle_21" x="455.901" y="378.935" width="122.613" height="50.905" filterUnits="userSpaceOnUse">
      <feOffset dy="3" input="SourceAlpha"/>
      <feGaussianBlur stdDeviation="2" result="blur-3"/>
      <feFlood flood-opacity="0.122"/>
      <feComposite operator="in" in2="blur-3"/>
      <feComposite in="SourceGraphic"/>
    </filter>
    <filter id="Path_141" x="192.412" y="147.941" width="173.718" height="93.312" filterUnits="userSpaceOnUse">
      <feOffset dy="3" input="SourceAlpha"/>
      <feGaussianBlur stdDeviation="2" result="blur-4"/>
      <feFlood flood-opacity="0.122"/>
      <feComposite operator="in" in2="blur-4"/>
      <feComposite in="SourceGraphic"/>
    </filter>
    <filter id="Path_156" x="324.756" y="167.53" width="190.63" height="83.282" filterUnits="userSpaceOnUse">
      <feOffset dy="3" input="SourceAlpha"/>
      <feGaussianBlur stdDeviation="2" result="blur-5"/>
      <feFlood flood-opacity="0.122"/>
      <feComposite operator="in" in2="blur-5"/>
      <feComposite in="SourceGraphic"/>
    </filter>
    <filter id="Path_157" x="464.412" y="112.108" width="97.245" height="110.627" filterUnits="userSpaceOnUse">
      <feOffset dy="6" input="SourceAlpha"/>
      <feGaussianBlur stdDeviation="4" result="blur-6"/>
      <feFlood flood-opacity="0.122"/>
      <feComposite operator="in" in2="blur-6"/>
      <feComposite in="SourceGraphic"/>
    </filter>
  </defs>
  <g id="home_page_main_section_illustration_two" data-name="home page main section illustration two" transform="translate(7.499 4.5)">
    <g transform="matrix(1, 0, 0, 1, -7.5, -4.5)" filter="url(#Path_135)">
      <path id="Path_135-2" data-name="Path 135" d="M771.487,572.434c-20.826,15.86-46.2,31.925-71.143,39.5a100.817,100.817,0,0,1-22.123,4.28,66.888,66.888,0,0,1-20.94-1.625c-18-4.478-34.7-12.32-50.859-21.482-5.279-3-10.5-6.133-15.684-9.337-8.468-5.233-16.851-10.649-25.258-15.936-1.259-.8-2.51-1.587-3.768-2.365H561.7q-3.044-1.911-6.1-3.768c-.359-.221-.717-.435-1.083-.656q-5.779-3.5-11.755-6.843c-.488-.267-.977-.542-1.465-.809a257.637,257.637,0,0,0-23.74-11.618c-5.325-2.243-10.718-4.264-16.165-5.988h-.008c-2.083-.656-4.173-1.274-6.271-1.838a131.229,131.229,0,0,0-19.178-3.753,104.864,104.864,0,0,0-26.86.214c-.6.084-1.2.168-1.8.267-24.106,3.86-46.107,16.874-70.319,19.941-.786.1-1.564.191-2.35.259-.336.031-.671.069-1.007.092a96.259,96.259,0,0,1-21.116-.519c-19.552-2.578-38.592-10.581-55.734-20.666-40.072-23.58-72.57-59.822-92.327-101.794A226.9,226.9,0,0,1,195.4,405.92a212.429,212.429,0,0,1-11.954-64.728c-1.854-76.559,41.651-153.37,109.957-188s158.176-23.175,213.269,30.018c33.42,32.268,52.758,75.995,77.91,115.06s60.9,76.369,107,82.059c23.488,2.9,48.067-2.708,70.579,4.585,12.465,4.043,23.1,11.778,31.666,21.634a97.022,97.022,0,0,1,14.326,22.123,108.28,108.28,0,0,1,6.66,17.957c.313,1.137.6,2.273.885,3.41C826.912,495.845,808.993,543.858,771.487,572.434Z" transform="translate(-175.89 -128.94)" fill="#f2f2f2"/>
    </g>
    <g transform="matrix(1, 0, 0, 1, -7.5, -4.5)" filter="url(#Rectangle_20)">
      <rect id="Rectangle_20-2" data-name="Rectangle 20" width="110.613" height="38.905" rx="19.453" transform="translate(129.3 360.58)" fill="#c6c6c6"/>
    </g>
    <path id="Path_136" data-name="Path 136" d="M427.177,638.217v32.368a95.775,95.775,0,0,1-22.123-.427v-31.94Z" transform="translate(-235.957 -253.153)" fill="#333"/>
    <path id="Path_137" data-name="Path 137" d="M493.424,618.567c-.6.084-1.2.168-1.8.267-24.106,3.86-46.106,16.874-70.319,19.941-.786.1-1.564.191-2.35.259-.336.031-.671.069-1.007.092-5.912-5.79-11.824-11.954-17.378-18.339-3.013-3.456-5.927-6.98-8.666-10.55-7.11-9.215-13.136-18.69-17.118-28,.4-4.463-2.372-14.784-3.7-22.687l-.008-.008a29.02,29.02,0,0,1-.587-8.056c1.617-10.7,10.352-9.467,13.037-19.948a59.117,59.117,0,0,1,7.712-5.424c.45-.267.908-.534,1.381-.8l29.141-20.139L432.9,516.1l16.95,16.63,18.369,18.011-15.593,15.753s13.029,15.02,28.263,35.045C484.979,606.918,489.228,612.662,493.424,618.567Z" transform="translate(-227.735 -221.602)" fill="#333"/>
    <path id="Path_138" data-name="Path 138" d="M854.177,638.217v93.426a100.817,100.817,0,0,1-22.123,4.28V638.217Z" transform="translate(-337.222 -253.153)" fill="#c6c6c6"/>
    <g transform="matrix(1, 0, 0, 1, -7.5, -4.5)" filter="url(#Rectangle_21)">
      <rect id="Rectangle_21-2" data-name="Rectangle 21" width="110.613" height="38.905" rx="19.453" transform="translate(461.9 381.94)" fill="#c6c6c6"/>
    </g>
    <path id="Path_139" data-name="Path 139" d="M665.784,690.294q-5.779-3.5-11.755-6.843c-.488-.267-.976-.542-1.465-.809l2.624-1.121,7.079-3.044.069-.031.076.259Z" transform="translate(-294.655 -262.694)" fill="#ffb6b6"/>
    <path id="Path_140" data-name="Path 140" d="M603.319,653.269c-1.259-.8-2.51-1.587-3.768-2.365h-.008q-3.044-1.911-6.1-3.768c-.359-.221-.717-.435-1.083-.656q-5.779-3.5-11.755-6.843c-.488-.267-.977-.542-1.465-.809a257.653,257.653,0,0,0-23.74-11.618c-5.325-2.243-10.718-4.264-16.165-5.988h-.008l-4.28-7.163L515.683,581.8l-4.234-7.087s-14.441,4.272-34.877,8.368c-7.438,1.5-15.661,2.96-24.289,4.2-9.223,1.312-18.9,2.357-28.508,2.861-4.585.244-9.154.366-13.655.328-11.633-.076-22.809-1.167-32.6-3.761-3.265-3.067-13.106-7.239-20.154-11.061h-.008a29.143,29.143,0,0,1-6.705-4.5c-7.43-7.857-1.083-13.983-7.689-22.557a59.52,59.52,0,0,1,.481-9.414c.069-.519.137-1.045.221-1.579l2.083-35.366,15.471-2.044,23.541-3.112,25.5-3.372,2.807,21.985s19.857-1.007,45.016-.671c40.408.549,94.479,4.577,101.8,21.863.687,1.625,1.373,3.265,2.06,4.905q2.449,5.882,4.852,11.824c5.805,14.342,11.344,28.82,16.4,42.506,3.143,8.513,6.1,16.722,8.826,24.4,2.189,6.179,4.219,12.022,6.072,17.4,1.693,4.913,3.227,9.436,4.592,13.495C602.907,652.041,603.113,652.667,603.319,653.269Z" transform="translate(-221.228 -218.88)" fill="#333"/>
    <g transform="matrix(1, 0, 0, 1, -7.5, -4.5)" filter="url(#Path_141)">
      <path id="Path_141-2" data-name="Path 141" d="M482.517,399.086l-48.864-41.5,31.792-32.175,22.18,36.329,82.215,16.3a15.944,15.944,0,1,1-2.265,23.4Z" transform="translate(-235.24 -174.47)" fill="#a0616a"/>
    </g>
    <path id="Path_142" data-name="Path 142" d="M376.913,289.447c-5.647,18.371,48.135,62.187,48.135,62.187.6-4.411,31.09,33.621,33.165,30.177,5.9-9.789,12.384-33.986,19.191-37.079,3.893-1.769-18.439-26.351-18.439-26.351s-11.391-15.071-26.432-34.171a40.745,40.745,0,0,0-35.918-15.99S382.56,271.076,376.913,289.447Z" transform="translate(-229.185 -165.373)" fill="#333"/>
    <circle id="Ellipse_21" data-name="Ellipse 21" cx="33.05" cy="33.05" r="33.05" transform="translate(138.458 17.305)" fill="#a0616a"/>
    <path id="Path_143" data-name="Path 143" d="M403.693,266.418c7.12,4.233,11.379,12.01,13.824,19.925a188.819,188.819,0,0,1,8.114,45.112l2.582,45.839L460.2,474.9c-27.719,23.454-131.911,5.331-131.911,5.331s-3.2-1.066,0-4.264,6.312-.365,3.114-3.563-.994.365.073-2.834,0-1.066-1.066-2.132,8.253-10.661,8.253-10.661l-8.529-56.025L319.47,287.741c12.793-15.992,38.523-25.419,38.523-25.419l6.648-11.967,33.24,2.659Z" transform="translate(-215.661 -161.171)" fill="#333"/>
    <path id="Path_144" data-name="Path 144" d="M423.724,168.322a15.316,15.316,0,0,1,5.441,7.643,107.574,107.574,0,0,0,.071-15c-.39-3.51-2.86-4.3-5.722-5.214-2.584-.826-5.506-1.76-6.292-5.167-10.389-10.106-28.474-9.6-40.851-6.072-6.81,1.94-10.729,4.432-11.08,5.892l-.073.3-.277.138c-5.25,2.625-6.272,10.914-6.2,17.4.128,12.23,4.35,26.119,6.729,27.247.126.06.158.036.212-.009h0c3.582-2.862,7.952.218,9.872,1.892a34.373,34.373,0,0,1,30.778-29.155,53.936,53.936,0,0,0,7.418-1.244,15.617,15.617,0,0,1,3.79-.5A10.785,10.785,0,0,1,423.724,168.322Z" transform="translate(-225.973 -135.525)" fill="#333"/>
    <path id="Path_145" data-name="Path 145" d="M385.833,484.089l-10.11-5.177a2.771,2.771,0,0,1,2.5-4.88l10.11,5.178a2.771,2.771,0,0,1-2.5,4.88Z" transform="translate(-228.726 -214.181)" fill="#6c63ff"/>
    <path id="Path_146" data-name="Path 146" d="M339.565,447.215,322.934,385.3l44.442-8.413-2.39,42.5,58.394,60.126a15.944,15.944,0,1,1-15.161,17.971Z" transform="translate(-216.482 -191.178)" fill="#a0616a"/>
    <path id="Path_147" data-name="Path 147" d="M315.184,294.552c-15.085,11.909,4.277,78.524,4.277,78.524,3-3.29,6.481,45.332,10.145,43.677,10.414-4.705,29.5-20.931,36.86-19.609,4.208.756-.2-32.161-.2-32.161s-.811-18.874-2.335-43.138a40.745,40.745,0,0,0-20.472-33.566S330.269,282.643,315.184,294.552Z" transform="translate(-213.281 -169.848)" fill="#333"/>
    <path id="Path_148" data-name="Path 148" d="M811.887,513.383,208.155,512.7a226.922,226.922,0,0,1-9.025-22.069l598.43.633a97.022,97.022,0,0,1,14.326,22.123Z" transform="translate(-187.122 -218.152)" fill="#333"/>
    <path id="Path_149" data-name="Path 149" d="M742.5,726.105q-4.68,2.266-9.444,4.371c-5.279-3-10.5-6.133-15.684-9.337l19.239-8.452Z" transform="translate(-310.025 -270.814)" fill="#ffb6b6"/>
    <path id="Path_150" data-name="Path 150" d="M853.047,576.882q-4.692,6.294-9.681,12.335-4.6,5.573-9.444,10.932c-1.335,1.48-2.685,2.952-4.066,4.409q-3.81,4.085-7.789,8.033c-4.775,1.5-14.448,4.15-24.815,6.622-7.545,1.793-15.455,3.494-22.123,4.577a79.7,79.7,0,0,1-11.3,1.205c-4.5.038-9.07-.084-13.655-.328-5.172-.275-10.352-.7-15.471-1.251-13.312-1.4-26.2-3.57-37.326-5.805-4.074-.809-7.9-1.633-11.427-2.433-6.675-1.5-12.259-2.906-16.3-3.974-4.554-1.19-7.148-1.961-7.148-1.961l-11.4,19.1-5.92,9.909-4.348,7.285-1.16,1.93c-.488-.267-.977-.542-1.465-.809a257.669,257.669,0,0,0-23.74-11.618c-5.325-2.243-10.718-4.264-16.165-5.988h-.008c-2.083-.656-4.173-1.274-6.271-1.838q.984-2.643,1.991-5.325,1.877-5,3.829-10.092c2.815-7.354,5.729-14.815,8.727-22.237,2.456-6.1,4.958-12.167,7.491-18.156,1.167-2.761,3.54-5.187,6.858-7.316a39.925,39.925,0,0,1,4.951-2.655c9.5-4.325,23.488-7.14,38.905-8.948,1.274-.145,2.556-.29,3.845-.427,12.762-1.343,26.3-2.037,38.966-2.357,6.339-.16,12.457-.221,18.148-.229q2.758,0,5.363.015h.008c4.692.023,9.009.092,12.808.168.74.015,1.457.038,2.159.053h.008c.473.008.938.023,1.4.031,8.307.214,13.4.473,13.4.473l1.976-15.5.4-3.128.381-2.975V528.6l.046-.374.313-.008,5.492-.107,46.167-.9,25.22-.5-4,17.134-6.6,28.271C830.955,576.592,853.276,573.09,853.047,576.882Z" transform="translate(-280.298 -226.711)" fill="#333"/>
    <path id="Path_151" data-name="Path 151" d="M729.709,698.733c-1.884.961-3.784,1.907-5.691,2.823q-4.68,2.266-9.444,4.371c-5.279-3-10.5-6.133-15.684-9.337-8.468-5.233-16.851-10.649-25.258-15.936-1.259-.8-2.51-1.587-3.768-2.365h-.008c-3.463-5.142-7-10.5-10.558-16.012-.053-.076-.1-.153-.145-.229q-1.373-2.106-2.731-4.241c-5.7-8.925-11.428-18.232-16.989-27.737l14.082-6.576L679.7,611.272l4.516-2.105L697.2,634.73l11.58,22.8,2.578,5.073Z" transform="translate(-291.541 -246.264)" fill="#333"/>
    <path id="Path_153" data-name="Path 153" d="M828.86,385.4l34.615,10.989.13-.022c12.883-2.158,23.574-23.2,30.273-40.472a24.1,24.1,0,0,0-12.272-30.533h0a24.156,24.156,0,0,0-25.3,3.192l-17.775,14.524Z" transform="translate(-336.464 -178.437)" fill="#6c63ff"/>
    <circle id="Ellipse_22" data-name="Ellipse 22" cx="38.221" cy="38.221" r="38.221" transform="translate(493.086 12.802)" fill="#ffb8b8"/>
    <path id="Path_155" data-name="Path 155" d="M859.229,223.791a103.951,103.951,0,0,0,17.683-1.236c5.8-1.179,18.766-10.682,22.381-16.4h0c2.686-4.249,4.4-10.884,5.372-15.7a46.468,46.468,0,0,0-8.127-36.89,14.681,14.681,0,0,0-5.93-5.061c-.212-.083-.431-.157-.652-.22a18.113,18.113,0,0,1-9.011-5.576,14.942,14.942,0,0,0-1.5-1.542,22.312,22.312,0,0,0-9.309-4.674c-5.534-1.481-13.542-.011-23.8,4.374-5.155,2.2-10.792,1.406-15.129.465a1.419,1.419,0,0,0-1.336.458,10.017,10.017,0,0,1-6.808,2.714c-1.55.068-3.177,2.214-5.142,5.013-.446.635-.967,1.377-1.342,1.828l-.05-.866-.877.967a12.156,12.156,0,0,0,5.488,19.8,23.705,23.705,0,0,0,4.768.76c.976.088,1.985.179,2.952.346a18.327,18.327,0,0,1,13.619,11.893,4.793,4.793,0,0,0,7.234,2.327,7.919,7.919,0,0,1,7.216-1.314,5.257,5.257,0,0,1,2.324,2.636,6.85,6.85,0,0,0,2.6,3.033c3.928,2.025,4.2,11,2.788,18.478-1.36,7.21-4.048,12.425-6.538,12.683-1.916.2-2.135.334-2.274.673l-.124.3.215.284A7.828,7.828,0,0,0,859.229,223.791Z" transform="translate(-332.584 -134.035)" fill="#333"/>
    <rect id="Rectangle_22" data-name="Rectangle 22" width="102.984" height="13.731" transform="translate(345.314 276.74)" fill="#fff"/>
    <rect id="Rectangle_23" data-name="Rectangle 23" width="102.984" height="13.731" transform="translate(82.132 276.74)" fill="#fff"/>
    <path id="Path_158" data-name="Path 158" d="M441.818,408.679v65.379a3.145,3.145,0,0,0,3.142,3.142h96.885a3.145,3.145,0,0,0,3.142-3.142V408.679a3.146,3.146,0,0,0-3.142-3.139H444.96a3.146,3.146,0,0,0-3.142,3.139Z" transform="translate(-244.676 -197.973)" fill="#f2f2f2" stroke="#707070" stroke-width="1"/>
    <path id="Path_159" data-name="Path 159" d="M444.8,410.2v63.759a1.682,1.682,0,0,0,1.679,1.679h95.269a1.682,1.682,0,0,0,1.679-1.679V410.2a1.683,1.683,0,0,0-1.679-1.683H446.477a1.683,1.683,0,0,0-1.68,1.683Z" transform="translate(-245.465 -199.016)" fill="#0eafe1" stroke="#707070" stroke-width="1"/>
    <path id="Path_160" data-name="Path 160" d="M439.028,508.73a1.884,1.884,0,0,0,1.483.709H544.251a1.909,1.909,0,0,0,1.866-2.3l-1.61-7.649a1.912,1.912,0,0,0-1.189-1.387,1.851,1.851,0,0,0-.677-.128H442.115a1.849,1.849,0,0,0-.677.128,1.912,1.912,0,0,0-1.189,1.387l-1.61,7.649a1.908,1.908,0,0,0,.389,1.591Z" transform="translate(-243.913 -219.895)" fill="#f2f2f2" stroke="#707070" stroke-width="1"/>
    <rect id="Rectangle_24" data-name="Rectangle 24" width="3.195" height="1.917" rx="0.488" transform="translate(297.991 281.376) rotate(180)" fill="#3f3d56"/>
    <rect id="Rectangle_25" data-name="Rectangle 25" width="3.195" height="1.917" rx="0.488" transform="translate(291.601 281.376) rotate(180)" fill="#3f3d56"/>
    <rect id="Rectangle_26" data-name="Rectangle 26" width="3.195" height="1.917" rx="0.488" transform="translate(285.211 281.376) rotate(180)" fill="#3f3d56"/>
    <rect id="Rectangle_27" data-name="Rectangle 27" width="3.195" height="1.917" rx="0.488" transform="translate(278.82 281.376) rotate(180)" fill="#3f3d56"/>
    <rect id="Rectangle_28" data-name="Rectangle 28" width="3.195" height="1.917" rx="0.488" transform="translate(272.43 281.376) rotate(180)" fill="#3f3d56"/>
    <rect id="Rectangle_29" data-name="Rectangle 29" width="3.195" height="1.917" rx="0.488" transform="translate(266.04 281.376) rotate(180)" fill="#3f3d56"/>
    <rect id="Rectangle_30" data-name="Rectangle 30" width="3.195" height="1.917" rx="0.488" transform="translate(259.649 281.376) rotate(180)" fill="#3f3d56"/>
    <rect id="Rectangle_31" data-name="Rectangle 31" width="3.195" height="1.917" rx="0.488" transform="translate(253.259 281.376) rotate(180)" fill="#3f3d56"/>
    <rect id="Rectangle_32" data-name="Rectangle 32" width="3.195" height="1.917" rx="0.488" transform="translate(246.869 281.376) rotate(180)" fill="#3f3d56"/>
    <rect id="Rectangle_33" data-name="Rectangle 33" width="3.195" height="1.917" rx="0.488" transform="translate(240.478 281.376) rotate(180)" fill="#3f3d56"/>
    <rect id="Rectangle_34" data-name="Rectangle 34" width="3.195" height="1.917" rx="0.488" transform="translate(234.088 281.376) rotate(180)" fill="#3f3d56"/>
    <rect id="Rectangle_35" data-name="Rectangle 35" width="3.195" height="1.917" rx="0.488" transform="translate(227.698 281.376) rotate(180)" fill="#3f3d56"/>
    <rect id="Rectangle_36" data-name="Rectangle 36" width="3.195" height="1.917" rx="0.488" transform="translate(221.307 281.376) rotate(180)" fill="#3f3d56"/>
    <rect id="Rectangle_37" data-name="Rectangle 37" width="3.195" height="1.917" rx="0.488" transform="translate(214.917 281.376) rotate(180)" fill="#3f3d56"/>
    <rect id="Rectangle_38" data-name="Rectangle 38" width="3.195" height="1.917" rx="0.488" transform="translate(208.527 281.376) rotate(180)" fill="#3f3d56"/>
    <rect id="Rectangle_39" data-name="Rectangle 39" width="3.195" height="1.917" rx="0.488" transform="translate(202.136 281.376) rotate(180)" fill="#3f3d56"/>
    <rect id="Rectangle_40" data-name="Rectangle 40" width="3.195" height="1.917" rx="0.488" transform="translate(298.068 284.571) rotate(180)" fill="#3f3d56"/>
    <rect id="Rectangle_41" data-name="Rectangle 41" width="3.195" height="1.917" rx="0.488" transform="translate(291.677 284.571) rotate(180)" fill="#3f3d56"/>
    <rect id="Rectangle_42" data-name="Rectangle 42" width="3.195" height="1.917" rx="0.488" transform="translate(285.286 284.571) rotate(180)" fill="#3f3d56"/>
    <rect id="Rectangle_43" data-name="Rectangle 43" width="3.195" height="1.917" rx="0.488" transform="translate(278.896 284.571) rotate(180)" fill="#3f3d56"/>
    <rect id="Rectangle_44" data-name="Rectangle 44" width="3.195" height="1.917" rx="0.488" transform="translate(272.506 284.571) rotate(180)" fill="#3f3d56"/>
    <rect id="Rectangle_45" data-name="Rectangle 45" width="3.195" height="1.917" rx="0.488" transform="translate(266.115 284.571) rotate(180)" fill="#3f3d56"/>
    <rect id="Rectangle_46" data-name="Rectangle 46" width="3.195" height="1.917" rx="0.488" transform="translate(259.725 284.571) rotate(180)" fill="#3f3d56"/>
    <rect id="Rectangle_47" data-name="Rectangle 47" width="3.195" height="1.917" rx="0.488" transform="translate(253.335 284.571) rotate(180)" fill="#3f3d56"/>
    <rect id="Rectangle_48" data-name="Rectangle 48" width="3.195" height="1.917" rx="0.488" transform="translate(246.944 284.571) rotate(180)" fill="#3f3d56"/>
    <rect id="Rectangle_49" data-name="Rectangle 49" width="3.195" height="1.917" rx="0.488" transform="translate(240.554 284.571) rotate(180)" fill="#3f3d56"/>
    <rect id="Rectangle_50" data-name="Rectangle 50" width="3.195" height="1.917" rx="0.488" transform="translate(234.164 284.571) rotate(180)" fill="#3f3d56"/>
    <rect id="Rectangle_51" data-name="Rectangle 51" width="3.195" height="1.917" rx="0.488" transform="translate(227.773 284.571) rotate(180)" fill="#3f3d56"/>
    <rect id="Rectangle_52" data-name="Rectangle 52" width="3.195" height="1.917" rx="0.488" transform="translate(221.383 284.571) rotate(180)" fill="#3f3d56"/>
    <rect id="Rectangle_53" data-name="Rectangle 53" width="3.195" height="1.917" rx="0.488" transform="translate(214.992 284.571) rotate(180)" fill="#3f3d56"/>
    <rect id="Rectangle_54" data-name="Rectangle 54" width="3.195" height="1.917" rx="0.488" transform="translate(208.602 284.571) rotate(180)" fill="#3f3d56"/>
    <rect id="Rectangle_55" data-name="Rectangle 55" width="3.195" height="1.917" rx="0.488" transform="translate(202.212 284.571) rotate(180)" fill="#3f3d56"/>
    <rect id="Rectangle_56" data-name="Rectangle 56" width="25.561" height="1.917" rx="0.488" transform="translate(267.393 288.405) rotate(180)" fill="#3f3d56"/>
    <path id="Path_152" data-name="Path 152" d="M754.847,525.709,821.6,461.337l18.5-52.384-27.289-11.867c-14.017,13.427-29.169,55.249-29.169,55.249l-45.933,58.438c-.358.123-.715.253-1.068.409a13.145,13.145,0,1,0,18.208,14.528Z" transform="matrix(0.996, 0.087, -0.087, 0.996, -269.072, -262.561)" fill="#ffb8b8"/>
    <path id="Path_154" data-name="Path 154" d="M891.3,514.7l.2-.269c10.8-14.323-3.971-49.794-6.2-54.938l10.042-2.975-1.75-19.12-.843-8.526,7.808-7.415.026-.189,5.37-38.213,7.026-25.291a55.905,55.905,0,0,0-14.465-54.57l-14.362-14.26L866.946,262l-28.85-.745-10.374,18.43a42.064,42.064,0,0,0-33.644,42.093l.977,49.063L784.7,431.632l-.29,11.042L774.25,453.4l1.878,10.84-7.6,3.027-3.719,15.4c-1.42,1.777-10.8,13.632-10.884,16.937-.013.5.341.985,1.113,1.538,6.071,4.343,40,13.755,55.273,8.1,16.266-6.022,80.019,5.288,80.661,5.4Z" transform="translate(-318.693 -163.756)" fill="#0eafe1"/>
    <path id="Path_439" data-name="Path 439" d="M16.957,39.1,0,29.247V9.855L16.957,0,33.932,9.854V29.247L16.957,39.1ZM2.292,27.928l14.666,8.523L31.64,27.928V11.175L16.958,2.651,2.292,11.173Z" transform="translate(231.89 224.133)" fill="#d6d6d6"/>
    <path id="Path_440" data-name="Path 440" d="M56.27,78.551l-11.87-6.9V58.078l11.87-6.9,11.882,6.9V71.654l-11.882,6.9ZM46,70.729,56.27,76.7l10.277-5.966V59L56.27,53.036,46,59V70.73Z" transform="translate(192.579 178.82)" fill="#d6d6d6"/>
    <g id="Group_99" data-name="Group 99">
      <g transform="matrix(1, 0, 0, 1, -7.5, -4.5)" filter="url(#Path_156)">
        <path id="Path_156-2" data-name="Path 156" d="M785.77,380.471,771.033,351.09c-21.391,1.461-63.846,26.194-63.846,26.194L626.86,394.314a14.512,14.512,0,1,0,3.956,24.8L733,411.789Z" transform="translate(-276.38 -180.56)" fill="#ffb8b8"/>
      </g>
      <g transform="matrix(1, 0, 0, 1, -7.5, -4.5)" filter="url(#Path_157)">
        <path id="Path_157-2" data-name="Path 157" d="M825.107,369,863.6,340.4l6.78-24.432a26.686,26.686,0,0,0-8.026-27h0a26.623,26.623,0,0,0-36.33,1.172c-14.484,14.457-31,34.626-27.455,48.611l.036.142Z" transform="translate(-321.66 -164.26)" fill="#0eafe1"/>
      </g>
    </g>
  </g>
</svg>
