<svg xmlns="http://www.w3.org/2000/svg" xmlns:xlink="http://www.w3.org/1999/xlink" width="228" height="228" viewBox="0 0 228 228">
  <defs>
    <filter id="Ellipse_66" x="0" y="0" width="228" height="228" filterUnits="userSpaceOnUse">
      <feOffset dy="3" input="SourceAlpha"/>
      <feGaussianBlur stdDeviation="3" result="blur"/>
      <feFlood flood-opacity="0.122"/>
      <feComposite operator="in" in2="blur"/>
      <feComposite in="SourceGraphic"/>
    </filter>
  </defs>
  <g id="team_avatar_six" data-name="team avatar six" transform="translate(-763.862 -804.228)">
    <g transform="matrix(1, 0, 0, 1, 763.86, 804.23)" filter="url(#Ellipse_66)">
      <circle id="Ellipse_66-2" data-name="Ellipse 66" cx="105" cy="105" r="105" transform="translate(9 6)" fill="#f7f7f7"/>
    </g>
    <g id="Group_120" data-name="Group 120" transform="translate(0 -8.282)">
      <path id="Path_458" data-name="Path 458" d="M665.224,699.493l-18.533-1.685-11.09-8.1a.062.062,0,0,0-.014-.043l-.029.014-.444-.329-.057.515-18.717,7.2-19.232-4.436-6.654,7.2-29.635,9.831a15.06,15.06,0,0,0-3.706,3.506l0,.019c1.244.974,2.523,1.933,3.818,2.843a98.361,98.361,0,0,0,9.144,5.867,103.022,103.022,0,0,0,24.412,10.031q1.159.322,2.318.6c1.345.329,2.7.644,4.064.9q4.121.859,8.343,1.345a102.282,102.282,0,0,0,12.464.744q4.272,0,8.457-.329a104.267,104.267,0,0,0,14.567-2.218c.172-.043.344-.071.516-.129a103.033,103.033,0,0,0,21.293-7.412c1.045-.5,2.089-1.016,3.119-1.545q3.8-1.953,7.384-4.207c1.8-1.116,3.563-2.3,5.28-3.535,1.059-.758,2.1-1.531,3.134-2.332l-.111-.237A24.653,24.653,0,0,0,665.224,699.493Z" transform="translate(258.831 270.024)" fill="#333"/>
      <path id="Path_459" data-name="Path 459" d="M643.721,639.627a34.093,34.093,0,0,0-7.255-5.481c-16.385-9.044-34.286-9.2-49.111-.444a46.225,46.225,0,0,0-10,7.942A46.8,46.8,0,0,0,564.345,673.9v35.659h93.27V670.249C657.615,659.718,651.82,647.525,643.721,639.627Z" transform="translate(262.613 237.166)" fill="#333"/>
      <circle id="Ellipse_68" data-name="Ellipse 68" cx="33.686" cy="33.686" r="33.686" transform="translate(838.063 878.397)" fill="#ffb8b8"/>
      <path id="Path_460" data-name="Path 460" d="M640.428,642.076a4.165,4.165,0,0,0-2.361-3.363c-21.078-9.845-42.456-9.587-63.507.773h-.385l-.129.529c-4.15,31.968-3.563,32.669-3.306,32.955a4.163,4.163,0,0,0,1.474,1.073,4.038,4.038,0,0,0,1.646.343h48.052l.115-.544a78.488,78.488,0,0,1,2.146-8.471,94.057,94.057,0,0,1,5.28,8.671l.2.343H639a3.326,3.326,0,0,0,.53-.043,4.008,4.008,0,0,0,2.5-1.3C642.289,672.77,642.89,672.112,640.428,642.076Z" transform="translate(265.876 239.389)" fill="#333"/>
    </g>
  </g>
</svg>
