<svg xmlns="http://www.w3.org/2000/svg" xmlns:xlink="http://www.w3.org/1999/xlink" width="228" height="228" viewBox="0 0 228 228">
  <defs>
    <filter id="Ellipse_60" x="0" y="0" width="228" height="228" filterUnits="userSpaceOnUse">
      <feOffset dy="3" input="SourceAlpha"/>
      <feGaussianBlur stdDeviation="3" result="blur"/>
      <feFlood flood-opacity="0.122"/>
      <feComposite operator="in" in2="blur"/>
      <feComposite in="SourceGraphic"/>
    </filter>
  </defs>
  <g id="team_avatar_three" data-name="team avatar three" transform="translate(-1013.862 -603.228)">
    <g transform="matrix(1, 0, 0, 1, 1013.86, 603.23)" filter="url(#Ellipse_60)">
      <circle id="Ellipse_60-2" data-name="Ellipse 60" cx="105" cy="105" r="105" transform="translate(9 6)" fill="#f7f7f7"/>
    </g>
    <path id="Path_450" data-name="Path 450" d="M922.7,502.91a167.55,167.55,0,0,0-26.73-11.249l-1.177-13-47.671-5.136-6.058,16.62-17.108,6.42a8.35,8.35,0,0,0-1.737.9H822.2a16.894,16.894,0,0,0-7.848,2.713,17.371,17.371,0,0,0-4.2,3.762c2.315,1.754,4.719,3.382,7.2,4.937l.109.054c.705.434,1.429.868,2.151,1.284,1.3.778,2.641,1.519,3.979,2.224l.85.434c1.953,1.013,3.942,1.971,5.986,2.857.416.181.869.362,1.284.543.035.018.054.018.089.036.959.4,1.917.778,2.894,1.139a95.046,95.046,0,0,0,9.8,3.147,100.8,100.8,0,0,0,25.988,3.4c3.2,0,6.366-.145,9.5-.452a100.375,100.375,0,0,0,21.05-4.25c.017,0,.037-.018.054-.018a98.79,98.79,0,0,0,12.642-5.01c.017-.018.054-.018.072-.036.922-.434,1.808-.9,2.712-1.356l.434-.217c.724-.38,1.448-.759,2.171-1.157,1.808-.995,3.58-2.044,5.333-3.165.488-.289.959-.6,1.448-.922.687-.452,1.374-.922,2.044-1.411C926.257,504.918,924.5,503.887,922.7,502.91Z" transform="translate(258.709 269.049)" fill="#0eafe1"/>
    <ellipse id="Ellipse_62" data-name="Ellipse 62" cx="34.334" cy="34.333" rx="34.334" ry="34.333" transform="translate(1093.862 665.271)" fill="#ffb8b8"/>
    <path id="Path_451" data-name="Path 451" d="M839.241,444.315c3.554,4.206,9.569,5.393,15.117,5.88,11.268.988,27.653-.615,38.665-3.157.786,7.618-1.357,15.831,3.13,22.1a102.584,102.584,0,0,0,3.645-23.255,22.263,22.263,0,0,0-1.288-9.96,9.161,9.161,0,0,0-7.8-5.753,19.557,19.557,0,0,1,8.724-3.73l-10.9-5.478,2.8-2.874-19.737-1.208,5.716-3.632a123.958,123.958,0,0,0-25.969-.82c-4.022.3-8.227.862-11.486,3.193s-5.142,6.962-3.119,10.383a15.076,15.076,0,0,0-11.489,9.116,24.339,24.339,0,0,0-.872,11.7,82.927,82.927,0,0,0,4.348,18.394Z" transform="translate(265.836 238.454)" fill="#333"/>
  </g>
</svg>
