<svg xmlns="http://www.w3.org/2000/svg" xmlns:xlink="http://www.w3.org/1999/xlink" width="228" height="228" viewBox="0 0 228 228">
  <defs>
    <filter id="Ellipse_65" x="0" y="0" width="228" height="228" filterUnits="userSpaceOnUse">
      <feOffset dy="3" input="SourceAlpha"/>
      <feGaussianBlur stdDeviation="3" result="blur"/>
      <feFlood flood-opacity="0.122"/>
      <feComposite operator="in" in2="blur"/>
      <feComposite in="SourceGraphic"/>
    </filter>
  </defs>
  <g id="team_avatar_five" data-name="team avatar five" transform="translate(-1013.862 -804.228)">
    <g transform="matrix(1, 0, 0, 1, 1013.86, 804.23)" filter="url(#Ellipse_65)">
      <circle id="Ellipse_65-2" data-name="Ellipse 65" cx="105" cy="105" r="105" transform="translate(9 6)" fill="#f7f7f7"/>
    </g>
    <path id="Path_461" data-name="Path 461" d="M891.372,698.537l-1.142-12.681-46.551-5.015-5.894,16.226-16.712,6.262a8.169,8.169,0,0,0-1.719.879,16.884,16.884,0,0,0-9.111,3.7c.381.315.762.617,1.142.919.079.079.171.144.249.21,1.063.827,2.153,1.641,3.256,2.416.289.21.578.42.88.617a87.41,87.41,0,0,0,7.509,4.765q3.7,2.107,7.6,3.886a93.994,93.994,0,0,0,14.8,5.317q1.063.3,2.127.551c1.234.3,2.481.591,3.728.827q3.781.788,7.654,1.234a93.809,93.809,0,0,0,11.434.683q3.919,0,7.759-.3A95.626,95.626,0,0,0,891.739,727c.158-.039.315-.066.473-.118a94.528,94.528,0,0,0,19.534-6.8c.958-.459,1.917-.932,2.861-1.418q3.486-1.792,6.774-3.86c.788-.486,1.562-.985,2.337-1.51C911.811,705.284,894.522,699.547,891.372,698.537Z" transform="translate(260.198 260.741)" fill="#333"/>
    <circle id="Ellipse_109" data-name="Ellipse 109" cx="33.522" cy="33.522" r="33.522" transform="translate(1091.808 866.285)" fill="#ffb8b8"/>
    <path id="Path_696" data-name="Path 696" d="M837.314,649.995c3.47,4.107,9.342,5.265,14.759,5.736,11,.965,27-.6,37.751-3.082.772,7.437-1.324,15.456,3.056,21.575a100.16,100.16,0,0,0,3.559-22.706,21.746,21.746,0,0,0-1.257-9.725,8.943,8.943,0,0,0-7.619-5.617,2.8,2.8,0,0,0,.614-2.924,9.508,9.508,0,0,0-7.208-7.142L868.9,623.2s-11.324-4.966-19.783-4.343c-3.927.289-8.033.842-11.214,3.117s-5.02,6.8-3.045,10.137a14.719,14.719,0,0,0-11.217,8.9,23.763,23.763,0,0,0-.852,11.423,80.949,80.949,0,0,0,4.245,17.959Z" transform="translate(265.514 233.437)" fill="#333"/>
  </g>
</svg>
