<svg xmlns="http://www.w3.org/2000/svg" xmlns:xlink="http://www.w3.org/1999/xlink" width="228" height="228" viewBox="0 0 228 228">
  <defs>
    <filter id="Ellipse_61" x="0" y="0" width="228" height="228" filterUnits="userSpaceOnUse">
      <feOffset dy="3" input="SourceAlpha"/>
      <feGaussianBlur stdDeviation="3" result="blur"/>
      <feFlood flood-opacity="0.122"/>
      <feComposite operator="in" in2="blur"/>
      <feComposite in="SourceGraphic"/>
    </filter>
  </defs>
  <g id="team_avatar_two" data-name="team avatar two" transform="translate(-763.862 -603.228)">
    <g transform="matrix(1, 0, 0, 1, 763.86, 603.23)" filter="url(#Ellipse_61)">
      <circle id="Ellipse_61-2" data-name="Ellipse 61" cx="105" cy="105" r="105" transform="translate(9 6)" fill="#f7f7f7"/>
    </g>
    <circle id="Ellipse_188" data-name="Ellipse 188" cx="13.956" cy="13.956" r="13.956" transform="translate(869.736 629.252)" fill="#333"/>
    <path id="Path_969" data-name="Path 969" d="M597.9,424.48a13.958,13.958,0,0,1,5.075-23.425,13.953,13.953,0,1,0,6.469,27.029,13.923,13.923,0,0,1-11.545-3.605Z" transform="translate(273.638 225.988)" fill="#333"/>
    <circle id="Ellipse_189" data-name="Ellipse 189" cx="40.997" cy="40.997" r="40.997" transform="translate(842.99 650.943)" fill="#333"/>
    <path id="Path_970" data-name="Path 970" d="M582.794,435.138a40.99,40.99,0,0,1,56.816-4.3c-.335-.319-.669-.64-1.015-.949a41,41,0,1,0-54.711,61.071l.234.208c.348.309.705.6,1.061.9a40.99,40.99,0,0,1-2.385-56.928Z" transform="translate(264.622 234.227)" fill="#333"/>
    <circle id="Ellipse_190" data-name="Ellipse 190" cx="26.404" cy="26.404" r="26.404" transform="translate(857.225 679.897)" fill="#a0616a"/>
    <path id="Path_452" data-name="Path 452" d="M673.454,516.363v8.859c-1.622,1.036-3.26,2.006-4.931,2.925-.669.368-1.337.719-2.005,1.07l-.4.2c-.836.418-1.655.853-2.507,1.254-.016.017-.051.017-.067.033a91.29,91.29,0,0,1-11.685,4.63c-.016,0-.033.017-.05.017a92.781,92.781,0,0,1-19.457,3.928c-2.892.284-5.817.418-8.776.418a93.164,93.164,0,0,1-24.02-3.143,90.452,90.452,0,0,1-11.734-3.961c-.034-.017-.051-.017-.084-.033-.384-.167-.8-.334-1.187-.5-1.889-.819-3.727-1.7-5.533-2.641l-.785-.4c-1.923-1.02-3.812-2.089-5.667-3.243l-.1-.05a91.564,91.564,0,0,1-8.258-5.8c-1.354-1.036-2.657-2.123-3.928-3.26-.669-.568-1.337-1.17-1.972-1.755a90.47,90.47,0,0,1-6.938-7.154,33.81,33.81,0,0,1,1.271-5.132l.016-.017a7.5,7.5,0,0,1,.351-.836,6.631,6.631,0,0,1,.317-.7c2.992-5.6,8.408-6.987,15.128-7.288,3.794-.167,7.99.017,12.42-.033,2.34-.017,4.763-.1,7.187-.318,15.295-1.387,12.52-10.414,13.205-15.278.686-4.714,4.931-.635,5.215-.368l.016.017a53.943,53.943,0,0,0,27.748,4.864c1.638-.2,3.276-.318,4.914-.368,4.313-.05,3.377,1.187,1.889,2.207a18.69,18.69,0,0,1-2.257,1.27s-.686,4.179-1.388,10.431c-.668,5.984,20.41,8.057,24.539,9.361h.016a15.074,15.074,0,0,1,9.495,10.8Z" transform="translate(257.315 259.251)" fill="#0eafe1"/>
    <ellipse id="Ellipse_191" data-name="Ellipse 191" cx="2.084" cy="3.821" rx="2.084" ry="3.821" transform="translate(854.662 696.907)" fill="#a0616a"/>
    <ellipse id="Ellipse_192" data-name="Ellipse 192" cx="2.084" cy="3.821" rx="2.084" ry="3.821" transform="translate(908.413 696.907)" fill="#a0616a"/>
    <path id="Path_462" data-name="Path 462" d="M640.41,446.016a12.853,12.853,0,0,0-6.289-7.546,35.86,35.86,0,0,0-9.484-3.334,62.407,62.407,0,0,0-17.763-2.431c-5.991.294-12.115,2.362-16.184,6.768s-5.579,11.4-2.614,16.614l-.328,1.348a24.75,24.75,0,0,0,24.19-11.914,22.6,22.6,0,0,0,21.386,10.391,10.018,10.018,0,0,0,3.819-1.1,7.946,7.946,0,0,0,3.268-8.8Z" transform="translate(271.755 239.979)" fill="#333"/>
  </g>
</svg>
