<svg xmlns="http://www.w3.org/2000/svg" xmlns:xlink="http://www.w3.org/1999/xlink" width="228" height="228" viewBox="0 0 228 228">
  <defs>
    <filter id="Ellipse_64" x="0" y="0" width="228" height="228" filterUnits="userSpaceOnUse">
      <feOffset dy="3" input="SourceAlpha"/>
      <feGaussianBlur stdDeviation="3" result="blur"/>
      <feFlood flood-opacity="0.122"/>
      <feComposite operator="in" in2="blur"/>
      <feComposite in="SourceGraphic"/>
    </filter>
  </defs>
  <g id="team_avatar_four" data-name="team avatar four" transform="translate(-541.862 -804.228)">
    <g transform="matrix(1, 0, 0, 1, 541.86, 804.23)" filter="url(#Ellipse_64)">
      <circle id="Ellipse_64-2" data-name="Ellipse 64" cx="105" cy="105" r="105" transform="translate(9 6)" fill="#f7f7f7"/>
    </g>
    <circle id="Ellipse_67" data-name="Ellipse 67" cx="28.977" cy="28.977" r="28.977" transform="translate(625.165 872.275)" fill="#a0616a"/>
    <path id="Path_456" data-name="Path 456" d="M360.2,674.428s2.462-4.324,1.89-18.768,21.422-6.275,39.8-7.653,14.488,24.115,14.488,24.115,1.326-1.516,4.165-13.819-3.607-24.564-3.607-24.564c-1.9-12.929-12.129-8.785-12.129-8.785,4.927,1.918,3.981,6.019,3.981,6.019-4.17-7.312-14.4-3.168-14.4-3.168-13.645-8.562-27.474,2.713-27.474,2.713-16.484,3.741-6.817,16.85-6.817,16.85C343.525,655.744,360.2,674.428,360.2,674.428Z" transform="translate(266.523 235.856)" fill="#333"/>
    <path id="Path_457" data-name="Path 457" d="M443.644,708.868a161.54,161.54,0,0,0-25.768-10.844l-1.134-12.535-45.955-4.951-5.84,16.022-16.492,6.189a8.049,8.049,0,0,0-1.675.871h-.018a16.286,16.286,0,0,0-7.565,2.615,16.749,16.749,0,0,0-4.044,3.626c2.231,1.691,4.549,3.26,6.938,4.76l.105.052c.68.418,1.378.837,2.074,1.238,1.256.75,2.546,1.464,3.836,2.144l.82.418c1.882.976,3.8,1.9,5.771,2.754.4.174.837.349,1.238.523.034.017.052.017.086.035.925.384,1.848.75,2.789,1.1a91.658,91.658,0,0,0,9.449,3.034,97.167,97.167,0,0,0,25.052,3.277c3.086,0,6.137-.139,9.154-.436a96.758,96.758,0,0,0,20.293-4.1c.016,0,.036-.017.052-.017A95.207,95.207,0,0,0,435,719.817c.016-.018.052-.018.07-.035.889-.418,1.743-.872,2.614-1.307l.419-.209c.7-.366,1.4-.732,2.093-1.116,1.743-.959,3.452-1.97,5.141-3.051.471-.279.925-.575,1.4-.889.662-.436,1.324-.889,1.97-1.36C447.077,710.8,445.387,709.809,443.644,708.868Z" transform="translate(258.835 260.61)" fill="#0eafe1"/>
  </g>
</svg>
