<svg id="undraw_experience_design_re_dmqq" xmlns="http://www.w3.org/2000/svg" xmlns:xlink="http://www.w3.org/1999/xlink" width="603" height="460" viewBox="0 0 603 460">
  <defs>
    <filter id="Path_402" x="459.831" y="157.522" width="72.681" height="132.517" filterUnits="userSpaceOnUse">
      <feOffset dy="3" input="SourceAlpha"/>
      <feGaussianBlur stdDeviation="2.5" result="blur"/>
      <feFlood flood-opacity="0.161"/>
      <feComposite operator="in" in2="blur"/>
      <feComposite in="SourceGraphic"/>
    </filter>
    <filter id="Path_406" x="510.962" y="174.063" width="40.883" height="113.164" filterUnits="userSpaceOnUse">
      <feOffset dy="3" input="SourceAlpha"/>
      <feGaussianBlur stdDeviation="2.5" result="blur-2"/>
      <feFlood flood-opacity="0.161"/>
      <feComposite operator="in" in2="blur-2"/>
      <feComposite in="SourceGraphic"/>
    </filter>
  </defs>
  <g id="Rectangle_123" data-name="Rectangle 123" fill="#fff" stroke="#888" stroke-width="3">
    <rect width="603" height="460" rx="25" stroke="none"/>
    <rect x="1.5" y="1.5" width="600" height="457" rx="23.5" fill="none"/>
  </g>
  <path id="Path_527" data-name="Path 527" d="M20,0H575c11.046,0,20.909,10.633,20.909,19.832v14.31l-596.883,0V19.957C-.974,10.758,8.954,0,20,0Z" transform="translate(3.974 3)" fill="#f2f2f2"/>
  <path id="Path_499" data-name="Path 499" d="M442.218,211.14H160.9c-2.614,0-4.741-2.691-4.741-6s2.127-6,4.741-6H442.218c2.614,0,4.741,2.691,4.741,6S444.832,211.14,442.218,211.14Z" transform="translate(0.837)" fill="#e6e6e6"/>
  <path id="Path_517" data-name="Path 517" d="M539.727,82.743h-52.82a5.853,5.853,0,0,1-5.846-5.846V71.614a5.852,5.852,0,0,1,5.846-5.845h52.82a5.852,5.852,0,0,1,5.846,5.845V76.9A5.853,5.853,0,0,1,539.727,82.743Z" transform="translate(9.06 -7.685)" fill="#0eafe1"/>
  <g id="Group_143" data-name="Group 143" transform="translate(-11.061)">
    <path id="Path_516" data-name="Path 516" d="M296.2,308.64H228.549a7.5,7.5,0,0,1-7.488-7.488v-6.767a7.5,7.5,0,0,1,7.488-7.487H296.2a7.5,7.5,0,0,1,7.488,7.487v6.767A7.5,7.5,0,0,1,296.2,308.64Z" fill="#0eafe1"/>
    <path id="Path_518" data-name="Path 518" d="M396.573,309.14H328.917a8,8,0,0,1-7.988-7.988v-6.767a8,8,0,0,1,7.988-7.987h67.656a8,8,0,0,1,7.988,7.987v6.767A8,8,0,0,1,396.573,309.14ZM328.917,288.4a5.994,5.994,0,0,0-5.988,5.987v6.767a6,6,0,0,0,5.988,5.988h67.656a6,6,0,0,0,5.988-5.988v-6.767a5.994,5.994,0,0,0-5.988-5.987Z" fill="#888"/>
  </g>
  <path id="Path_519" data-name="Path 519" d="M479.561,180.14h-356a6,6,0,0,1,0-12h356a6,6,0,0,1,0,12Z" transform="translate(0.439)" fill="#e6e6e6"/>
  <g id="Group_144" data-name="Group 144" transform="translate(18.453 -8)">
    <path id="Path_521" data-name="Path 521" d="M359.837,79.121h-36.13a4.275,4.275,0,1,1,0-8.481h36.13a4.275,4.275,0,1,1,0,8.481Z" transform="translate(-134.343 0.36)" fill="#e6e6e6"/>
    <path id="Path_528" data-name="Path 528" d="M359.837,79.121h-36.13a4.275,4.275,0,1,1,0-8.481h36.13a4.275,4.275,0,1,1,0,8.481Z" transform="translate(-58.343 0.36)" fill="#e6e6e6"/>
    <path id="Path_529" data-name="Path 529" d="M359.837,79.121h-36.13a4.275,4.275,0,1,1,0-8.481h36.13a4.275,4.275,0,1,1,0,8.481Z" transform="translate(17.657 0.36)" fill="#e6e6e6"/>
  </g>
  <path id="Path_523" data-name="Path 523" d="M400.561,242.14h-198a6,6,0,0,1,0-12h198a6,6,0,0,1,0,12Z" transform="translate(0.439)" fill="#e6e6e6"/>
  <path id="Path_524" data-name="Path 524" d="M409.189,373.4H193.934a3.628,3.628,0,1,1,0-7.256H409.19a3.628,3.628,0,1,1,0,7.256h0Z" transform="translate(0.694)" fill="#e6e6e6"/>
  <path id="Path_526" data-name="Path 526" d="M409.189,373.4H193.934a3.628,3.628,0,1,1,0-7.256H409.19a3.628,3.628,0,1,1,0,7.256h0Z" transform="translate(0.694 -233.256)" fill="#d6d6d6"/>
  <path id="Path_525" data-name="Path 525" d="M411.193,21.4H195.937a3.628,3.628,0,1,1,0-7.256H411.193a3.628,3.628,0,0,1,0,7.256h0Z" transform="translate(0.54 2.304)" fill="#fff"/>
  <line id="Line_25" data-name="Line 25" x2="596" y2="0.501" transform="translate(3.5 37.144)" fill="none" stroke="#d6d6d6" stroke-width="2"/>
  <path id="Path_376" data-name="Path 376" d="M923.247,469.688l.047,165.416c.1,8.412-5.658,22.537-22.753,22.537L753.92,657.62l1.124-1.157Z" transform="translate(-323.291 -200.708)" fill="#f2f2f2"/>
  <g id="Group_139" data-name="Group 139" transform="translate(-7.375 1.98)">
    <path id="Path_397" data-name="Path 397" d="M567.51,512.649h-8.626l-4.1-33.272h12.731Z" transform="translate(-71.449 -66.738)" fill="#ffb6b6"/>
    <path id="Path_398" data-name="Path 398" d="M819.32,711.778H792.794v-.335a10.325,10.325,0,0,1,10.324-10.324h0l4.845-3.676,9.04,3.676h2.316Z" transform="translate(-322.955 -256.867)" fill="#333"/>
    <path id="Path_399" data-name="Path 399" d="M602.51,512.649h-8.626l-4.1-33.272h12.731Z" transform="translate(-75.957 -66.738)" fill="#ffb6b6"/>
    <path id="Path_400" data-name="Path 400" d="M854.32,711.778H827.794v-.335a10.325,10.325,0,0,1,10.324-10.324h0l4.845-3.676,9.04,3.676h2.316Z" transform="translate(-327.462 -256.867)" fill="#333"/>
    <path id="Path_403" data-name="Path 403" d="M795.653,505.594,794.161,489.7l-9.2-.415,2.174,16.746a5.343,5.343,0,1,0,8.514-.439Z" transform="matrix(0.996, -0.087, 0.087, 0.996, -362.274, -152.981)" fill="#ffb6b6"/>
    <path id="Path_405" data-name="Path 405" d="M870.262,506.819l.687-15.947,9.165-.878-1.327,16.834a5.343,5.343,0,1,1-8.525-.009Z" transform="matrix(0.995, 0.105, -0.105, 0.995, -276.54, -313.541)" fill="#ffb6b6"/>
    <path id="Path_404" data-name="Path 404" d="M799.432,392.886l-.255.043a14.8,14.8,0,0,0-10.964,8.388c-2.634,5.7-11.186,43.14-7.437,48.786,2.908,4.379,2.2,3.525.834,6.829s-3.568-.222-1.764,5.021,3.787,4.495,2.112,6.521-3.393,1.629-1.764,5.021a16.4,16.4,0,0,1,1.672,5.816c.308,1.278.04,10.264.04,10.264s9.824-.745,14.713,1.591c0,0-2.728-9.076-1.185-10.529s3.393-1.629,2.072-3.744-4.316-2.2-1.056-3.26,2.21-20,2.21-20C804.03,439.573,801.908,416.444,799.432,392.886Z" transform="translate(-321.199 -217.645)" fill="#f2f2f2"/>
    <circle id="Ellipse_45" data-name="Ellipse 45" cx="16.869" cy="16.869" r="16.869" transform="translate(491.237 123.11)" fill="#ffb6b6"/>
    <path id="Path_407" data-name="Path 407" d="M845.181,363.213c2.346-1.836,2.574-5.336,4.576-7.542,3.347-3.688,4.92-7.657,3.167-12.027-1.551-3.866-1.221-8.617-4.561-11.106,1.641-.594,2.027-1.827.579-1.85-.976-.015-4.615,1.85-2.864-.474s-1.564-1.407-1.344-2.358,1.625-1.478,2.245-.724a4.913,4.913,0,0,0-7.707.882c-1.973-2.957-4.067-4.991-7.086-3.115-2.965,1.843-2.926,4.121-6.115,3.573-1.5-.257-1.641,2.575-2.665,3.7a4.571,4.571,0,0,1-4.015,1.712c-1.494-.282-2.637-2.145-1.8-3.414l-3.522,8.036-1.42-1.741c-2.256,1.47-1.515,5.306.756,6.753s5.221,1.138,7.836.5a30.733,30.733,0,0,1,9.628-.8c4.937.7,8.375,6.6,6.547,11.237,1.9-1.862,5.405-.317,6.388,2.153s.262,5.253-.466,7.809" transform="translate(-325.336 -208.795)" fill="#333"/>
    <path id="Path_401" data-name="Path 401" d="M796.949,495.48s-8.3,25.49-6.767,28.845,4.146.741,1.532,3.355-4.9-.165-2.448,4.274,6.156,40.977,7.786,42.745,3.873,1.816,1.881,3.535-4.606-1.766-1.992,1.719,9.549,83.876,9.549,83.876h13.548s3.374-3.89,1.464-6.421.168-3.507,0-5.2.468-5.334.586-7,2.408-41.276-3.093-64.159l10.031-43.571,5.015,52.662s-5.589,44.172,0,58.372c0,0-4.506,3.752-2.508,5.927s3.741.432,2,2.175,2.614,7.841,2.614,7.841l14.811-.871,8.383-82.534s1.413-8.607,0-10.082-1.413,3.752-1.413-1.475v-6.97s6.317-42.868,6.208-45.392-10.564-20.82-10.564-20.82Z" transform="translate(-322.366 -230.857)" fill="#333"/>
    <g transform="matrix(1, 0, 0, 1, 7.38, -1.98)" filter="url(#Path_402)">
      <path id="Path_402-2" data-name="Path 402" d="M842.062,376.927l-21.626-1.487-6.471,10.2L798.38,391.98v50.264a48.436,48.436,0,0,1,2.483,15.09c-.06,10.014-2.633,21.811-1.742,24.394,8.712,25.265,56.629,0,56.629,0l-.871-27.008,1.183-61.037-9.791-7.809Z" transform="translate(-331.05 -213.42)" fill="#f2f2f2"/>
    </g>
    <g transform="matrix(1, 0, 0, 1, 7.38, -1.98)" filter="url(#Path_406)">
      <path id="Path_406-2" data-name="Path 406" d="M860.958,394.6c2.263-1.039,7.83,3.53,10.1,7.855,2.918,5.556,12.149,43.185,9.889,48.349-2.108,4.816.481,2.26.476,4.429s2.587,2.032,1.05,7.359-3.555,4.68-1.78,6.619,3.471,1.455,2.015,4.926a16.4,16.4,0,0,0-1.376,5.893c-.243,1.292.478,10.253.478,10.253s-9.849-.249-14.614,2.332c0,0,2.267-9.2.653-10.575s-3.471-1.455-2.258-3.634,4.2-2.419.89-3.309-3.216-19.862-3.216-19.862S851.717,397.235,860.958,394.6Z" transform="translate(-338.91 -215.88)" fill="#f2f2f2"/>
    </g>
  </g>
  <g id="Group_142" data-name="Group 142" transform="translate(6.625 28.436)">
    <path id="Path_495" data-name="Path 495" d="M15.424,35.567,0,26.6V8.964L15.424,0l15.44,8.963V26.6l-15.44,8.963ZM2.085,25.4l13.34,7.753L28.78,25.4V10.164L15.425,2.412,2.085,10.163Z" transform="translate(54.155 20.564)" fill="#d6d6d6"/>
    <path id="Path_496" data-name="Path 496" d="M55.2,76.076,44.4,69.8V57.454L55.2,51.18,66,57.454V69.8L55.2,76.077ZM45.86,68.962,55.2,74.388l9.348-5.427V58.295L55.2,52.868,45.86,58.295V68.963Z" transform="translate(14.384 -25.28)" fill="#888"/>
  </g>
</svg>
